G04 EAGLE Gerber RS-274X export*
G75*
%MOMM*%
%FSLAX34Y34*%
%LPD*%
%INBottom Copper*%
%IPPOS*%
%AMOC8*
5,1,8,0,0,1.08239X$1,22.5*%
G01*
%ADD10R,5.516000X5.516000*%
%ADD11C,5.516000*%
%ADD12R,1.700000X0.600000*%
%ADD13R,2.800000X1.000000*%
%ADD14C,1.879600*%
%ADD15C,1.524000*%
%ADD16C,0.812800*%
%ADD17C,0.406400*%
%ADD18C,0.787400*%
%ADD19C,0.756400*%
%ADD20C,0.304800*%
%ADD21C,0.152400*%
%ADD22C,0.806400*%

G36*
X997069Y-14867D02*
X997069Y-14867D01*
X997110Y-14863D01*
X997273Y-14849D01*
X997290Y-14843D01*
X997309Y-14841D01*
X997462Y-14788D01*
X997617Y-14739D01*
X997633Y-14729D01*
X997651Y-14723D01*
X997789Y-14638D01*
X997929Y-14556D01*
X997942Y-14543D01*
X997958Y-14534D01*
X997958Y-14533D01*
X997982Y-14510D01*
X998074Y-14420D01*
X998193Y-14309D01*
X998203Y-14294D01*
X998217Y-14281D01*
X998255Y-14222D01*
X998305Y-14145D01*
X998396Y-14011D01*
X998403Y-13994D01*
X998414Y-13978D01*
X998470Y-13825D01*
X998530Y-13675D01*
X998532Y-13658D01*
X998539Y-13639D01*
X998549Y-13566D01*
X998587Y-13281D01*
X998587Y-13280D01*
X998585Y-13260D01*
X998588Y-13243D01*
X998588Y-4878D01*
X998581Y-4816D01*
X998583Y-4754D01*
X998561Y-4637D01*
X998548Y-4519D01*
X998527Y-4460D01*
X998516Y-4398D01*
X998469Y-4290D01*
X998430Y-4178D01*
X998397Y-4124D01*
X998372Y-4067D01*
X998317Y-3994D01*
X998240Y-3870D01*
X998157Y-3785D01*
X998108Y-3721D01*
X997136Y-2749D01*
X993824Y2988D01*
X992109Y9387D01*
X992109Y16013D01*
X993824Y22412D01*
X997136Y28149D01*
X998108Y29121D01*
X998147Y29169D01*
X998193Y29212D01*
X998260Y29310D01*
X998334Y29403D01*
X998361Y29459D01*
X998396Y29511D01*
X998440Y29621D01*
X998492Y29728D01*
X998507Y29789D01*
X998530Y29847D01*
X998542Y29937D01*
X998575Y30079D01*
X998577Y30198D01*
X998588Y30278D01*
X998588Y336595D01*
X998570Y336756D01*
X998555Y336917D01*
X998550Y336935D01*
X998548Y336954D01*
X998495Y337107D01*
X998446Y337261D01*
X998436Y337278D01*
X998430Y337295D01*
X998345Y337433D01*
X998263Y337573D01*
X998250Y337587D01*
X998240Y337603D01*
X998127Y337719D01*
X998016Y337837D01*
X998001Y337848D01*
X997988Y337861D01*
X997852Y337950D01*
X997718Y338041D01*
X997700Y338048D01*
X997684Y338058D01*
X997532Y338114D01*
X997382Y338174D01*
X997365Y338176D01*
X997346Y338184D01*
X996987Y338232D01*
X996967Y338230D01*
X996950Y338232D01*
X967346Y338232D01*
X967185Y338214D01*
X967024Y338200D01*
X967006Y338194D01*
X966987Y338192D01*
X966834Y338139D01*
X966679Y338090D01*
X966663Y338081D01*
X966645Y338074D01*
X966507Y337989D01*
X966368Y337907D01*
X966354Y337895D01*
X966338Y337885D01*
X966222Y337771D01*
X966103Y337661D01*
X966093Y337645D01*
X966079Y337632D01*
X965991Y337496D01*
X965900Y337362D01*
X965893Y337345D01*
X965883Y337329D01*
X965826Y337177D01*
X965767Y337026D01*
X965764Y337009D01*
X965757Y336990D01*
X965709Y336632D01*
X965711Y336611D01*
X965709Y336595D01*
X965709Y334168D01*
X964858Y332114D01*
X963286Y330542D01*
X961232Y329691D01*
X959008Y329691D01*
X956954Y330542D01*
X955382Y332114D01*
X954531Y334168D01*
X954531Y336595D01*
X954513Y336756D01*
X954499Y336917D01*
X954493Y336935D01*
X954491Y336954D01*
X954439Y337107D01*
X954389Y337261D01*
X954380Y337278D01*
X954374Y337295D01*
X954289Y337433D01*
X954207Y337573D01*
X954194Y337587D01*
X954184Y337603D01*
X954070Y337719D01*
X953960Y337837D01*
X953944Y337848D01*
X953931Y337861D01*
X953795Y337950D01*
X953661Y338041D01*
X953644Y338048D01*
X953628Y338058D01*
X953476Y338114D01*
X953325Y338174D01*
X953309Y338176D01*
X953289Y338184D01*
X952931Y338232D01*
X952910Y338230D01*
X952894Y338232D01*
X806118Y338232D01*
X805997Y338219D01*
X805875Y338214D01*
X805818Y338199D01*
X805759Y338192D01*
X805644Y338153D01*
X805526Y338121D01*
X805473Y338094D01*
X805417Y338074D01*
X805313Y338010D01*
X805206Y337954D01*
X805160Y337916D01*
X805110Y337885D01*
X805022Y337799D01*
X804930Y337721D01*
X804894Y337674D01*
X804851Y337632D01*
X804785Y337530D01*
X804711Y337433D01*
X804687Y337379D01*
X804654Y337329D01*
X804612Y337215D01*
X804562Y337104D01*
X804550Y337046D01*
X804529Y336990D01*
X804513Y336869D01*
X804488Y336750D01*
X804489Y336691D01*
X804481Y336632D01*
X804492Y336510D01*
X804494Y336389D01*
X804507Y336339D01*
X804513Y336272D01*
X804583Y336051D01*
X804605Y335968D01*
X804831Y335422D01*
X804831Y333249D01*
X804000Y331242D01*
X803172Y330413D01*
X803070Y330287D01*
X802966Y330163D01*
X802958Y330146D01*
X802946Y330131D01*
X802874Y329985D01*
X802800Y329841D01*
X802796Y329823D01*
X802787Y329806D01*
X802750Y329648D01*
X802709Y329492D01*
X802708Y329473D01*
X802704Y329455D01*
X802702Y329293D01*
X802697Y329131D01*
X802700Y329112D01*
X802700Y329093D01*
X802734Y328935D01*
X802764Y328775D01*
X802771Y328758D01*
X802775Y328740D01*
X802843Y328592D01*
X802907Y328444D01*
X802918Y328430D01*
X802926Y328412D01*
X803145Y328124D01*
X803161Y328111D01*
X803172Y328098D01*
X804000Y327269D01*
X804831Y325262D01*
X804831Y323089D01*
X804000Y321082D01*
X803172Y320253D01*
X803070Y320127D01*
X802966Y320003D01*
X802958Y319986D01*
X802946Y319971D01*
X802874Y319825D01*
X802800Y319681D01*
X802796Y319663D01*
X802787Y319646D01*
X802750Y319488D01*
X802709Y319332D01*
X802708Y319313D01*
X802704Y319295D01*
X802702Y319133D01*
X802697Y318971D01*
X802700Y318952D01*
X802700Y318933D01*
X802734Y318775D01*
X802764Y318615D01*
X802771Y318598D01*
X802775Y318580D01*
X802843Y318432D01*
X802907Y318284D01*
X802918Y318270D01*
X802926Y318252D01*
X803145Y317964D01*
X803161Y317951D01*
X803172Y317938D01*
X804000Y317109D01*
X804831Y315102D01*
X804831Y312929D01*
X804000Y310922D01*
X802463Y309385D01*
X800456Y308554D01*
X798283Y308554D01*
X796276Y309385D01*
X795448Y310214D01*
X795321Y310315D01*
X795197Y310419D01*
X795180Y310428D01*
X795165Y310439D01*
X795020Y310510D01*
X794876Y310585D01*
X794857Y310589D01*
X794841Y310598D01*
X794682Y310635D01*
X794526Y310676D01*
X794507Y310677D01*
X794489Y310681D01*
X794327Y310683D01*
X794165Y310688D01*
X794146Y310685D01*
X794128Y310685D01*
X793969Y310651D01*
X793810Y310621D01*
X793792Y310614D01*
X793774Y310610D01*
X793626Y310542D01*
X793478Y310478D01*
X793465Y310468D01*
X793446Y310459D01*
X793158Y310240D01*
X793145Y310224D01*
X793132Y310214D01*
X792303Y309385D01*
X790296Y308554D01*
X788123Y308554D01*
X786116Y309385D01*
X785288Y310214D01*
X785161Y310315D01*
X785037Y310419D01*
X785020Y310428D01*
X785005Y310439D01*
X784860Y310510D01*
X784716Y310585D01*
X784697Y310589D01*
X784681Y310598D01*
X784522Y310635D01*
X784366Y310676D01*
X784347Y310677D01*
X784329Y310681D01*
X784167Y310683D01*
X784005Y310688D01*
X783986Y310685D01*
X783968Y310685D01*
X783809Y310651D01*
X783650Y310621D01*
X783632Y310614D01*
X783614Y310610D01*
X783466Y310542D01*
X783318Y310478D01*
X783305Y310468D01*
X783286Y310459D01*
X782998Y310240D01*
X782985Y310224D01*
X782972Y310214D01*
X782143Y309385D01*
X780136Y308554D01*
X777963Y308554D01*
X775956Y309385D01*
X775128Y310214D01*
X775001Y310315D01*
X774877Y310419D01*
X774860Y310428D01*
X774845Y310439D01*
X774700Y310510D01*
X774556Y310585D01*
X774537Y310589D01*
X774521Y310598D01*
X774362Y310635D01*
X774206Y310676D01*
X774187Y310677D01*
X774169Y310681D01*
X774007Y310683D01*
X773845Y310688D01*
X773826Y310685D01*
X773808Y310685D01*
X773649Y310651D01*
X773490Y310621D01*
X773472Y310614D01*
X773454Y310610D01*
X773306Y310542D01*
X773158Y310478D01*
X773145Y310468D01*
X773126Y310459D01*
X772838Y310240D01*
X772825Y310224D01*
X772812Y310214D01*
X771983Y309385D01*
X769976Y308554D01*
X767803Y308554D01*
X765796Y309385D01*
X764967Y310214D01*
X764841Y310315D01*
X764717Y310419D01*
X764700Y310428D01*
X764685Y310439D01*
X764539Y310511D01*
X764395Y310585D01*
X764377Y310589D01*
X764360Y310598D01*
X764202Y310635D01*
X764046Y310676D01*
X764027Y310677D01*
X764009Y310681D01*
X763847Y310683D01*
X763685Y310688D01*
X763666Y310685D01*
X763647Y310685D01*
X763489Y310651D01*
X763330Y310621D01*
X763312Y310614D01*
X763294Y310610D01*
X763147Y310542D01*
X762998Y310478D01*
X762984Y310468D01*
X762966Y310459D01*
X762678Y310240D01*
X762665Y310224D01*
X762652Y310214D01*
X761823Y309385D01*
X759816Y308554D01*
X757643Y308554D01*
X755636Y309385D01*
X754099Y310922D01*
X753268Y312929D01*
X753268Y315102D01*
X754099Y317109D01*
X754928Y317938D01*
X755029Y318064D01*
X755133Y318188D01*
X755142Y318205D01*
X755153Y318220D01*
X755224Y318366D01*
X755299Y318510D01*
X755304Y318528D01*
X755312Y318545D01*
X755349Y318703D01*
X755390Y318859D01*
X755391Y318878D01*
X755395Y318896D01*
X755397Y319058D01*
X755402Y319220D01*
X755399Y319239D01*
X755399Y319258D01*
X755365Y319416D01*
X755335Y319576D01*
X755328Y319593D01*
X755324Y319611D01*
X755256Y319759D01*
X755192Y319907D01*
X755182Y319921D01*
X755173Y319939D01*
X754954Y320227D01*
X754938Y320240D01*
X754928Y320253D01*
X754099Y321082D01*
X753268Y323089D01*
X753268Y325262D01*
X754099Y327269D01*
X754928Y328098D01*
X755029Y328224D01*
X755133Y328348D01*
X755142Y328365D01*
X755153Y328380D01*
X755224Y328526D01*
X755299Y328670D01*
X755304Y328688D01*
X755312Y328705D01*
X755349Y328863D01*
X755390Y329019D01*
X755391Y329038D01*
X755395Y329056D01*
X755397Y329218D01*
X755402Y329380D01*
X755399Y329399D01*
X755399Y329418D01*
X755365Y329576D01*
X755335Y329736D01*
X755328Y329753D01*
X755324Y329771D01*
X755256Y329919D01*
X755192Y330067D01*
X755182Y330081D01*
X755173Y330099D01*
X754954Y330387D01*
X754938Y330400D01*
X754928Y330413D01*
X754099Y331242D01*
X753268Y333249D01*
X753268Y335422D01*
X753494Y335968D01*
X753528Y336085D01*
X753570Y336199D01*
X753578Y336258D01*
X753595Y336315D01*
X753602Y336436D01*
X753618Y336557D01*
X753613Y336616D01*
X753617Y336676D01*
X753597Y336796D01*
X753587Y336917D01*
X753568Y336974D01*
X753559Y337032D01*
X753514Y337146D01*
X753477Y337261D01*
X753447Y337313D01*
X753425Y337368D01*
X753356Y337468D01*
X753294Y337573D01*
X753253Y337617D01*
X753220Y337666D01*
X753130Y337748D01*
X753047Y337837D01*
X752998Y337871D01*
X752955Y337911D01*
X752849Y337972D01*
X752749Y338041D01*
X752694Y338063D01*
X752642Y338093D01*
X752526Y338129D01*
X752413Y338174D01*
X752362Y338181D01*
X752297Y338201D01*
X752066Y338221D01*
X751981Y338232D01*
X734998Y338232D01*
X734877Y338219D01*
X734755Y338214D01*
X734698Y338199D01*
X734639Y338192D01*
X734524Y338153D01*
X734406Y338121D01*
X734353Y338094D01*
X734297Y338074D01*
X734193Y338010D01*
X734086Y337954D01*
X734040Y337916D01*
X733990Y337885D01*
X733902Y337799D01*
X733810Y337721D01*
X733774Y337674D01*
X733731Y337632D01*
X733665Y337530D01*
X733591Y337433D01*
X733567Y337379D01*
X733534Y337329D01*
X733492Y337215D01*
X733442Y337104D01*
X733430Y337046D01*
X733409Y336990D01*
X733393Y336869D01*
X733368Y336750D01*
X733369Y336691D01*
X733361Y336632D01*
X733372Y336510D01*
X733374Y336389D01*
X733387Y336339D01*
X733393Y336272D01*
X733463Y336051D01*
X733485Y335968D01*
X733711Y335422D01*
X733711Y333249D01*
X732880Y331242D01*
X732052Y330413D01*
X731950Y330287D01*
X731846Y330163D01*
X731838Y330146D01*
X731826Y330131D01*
X731754Y329985D01*
X731680Y329841D01*
X731676Y329823D01*
X731667Y329806D01*
X731630Y329648D01*
X731589Y329492D01*
X731588Y329473D01*
X731584Y329455D01*
X731582Y329293D01*
X731577Y329131D01*
X731580Y329112D01*
X731580Y329093D01*
X731614Y328935D01*
X731644Y328775D01*
X731651Y328758D01*
X731655Y328740D01*
X731723Y328592D01*
X731787Y328444D01*
X731798Y328430D01*
X731806Y328412D01*
X732025Y328124D01*
X732041Y328111D01*
X732052Y328098D01*
X732880Y327269D01*
X733711Y325262D01*
X733711Y323089D01*
X732880Y321082D01*
X732052Y320253D01*
X731950Y320127D01*
X731846Y320003D01*
X731837Y319986D01*
X731826Y319971D01*
X731755Y319826D01*
X731680Y319681D01*
X731676Y319663D01*
X731667Y319646D01*
X731630Y319488D01*
X731589Y319332D01*
X731588Y319313D01*
X731584Y319295D01*
X731582Y319133D01*
X731577Y318971D01*
X731580Y318952D01*
X731580Y318933D01*
X731614Y318775D01*
X731644Y318616D01*
X731651Y318598D01*
X731655Y318580D01*
X731723Y318432D01*
X731787Y318284D01*
X731797Y318271D01*
X731806Y318252D01*
X732025Y317964D01*
X732041Y317951D01*
X732052Y317938D01*
X732880Y317109D01*
X733711Y315102D01*
X733711Y312929D01*
X732880Y310922D01*
X731343Y309385D01*
X729336Y308554D01*
X727163Y308554D01*
X725156Y309385D01*
X724328Y310214D01*
X724201Y310315D01*
X724077Y310419D01*
X724060Y310428D01*
X724045Y310439D01*
X723900Y310510D01*
X723756Y310585D01*
X723737Y310589D01*
X723721Y310598D01*
X723562Y310635D01*
X723406Y310676D01*
X723387Y310677D01*
X723369Y310681D01*
X723207Y310683D01*
X723045Y310688D01*
X723026Y310685D01*
X723008Y310685D01*
X722849Y310651D01*
X722690Y310621D01*
X722672Y310614D01*
X722654Y310610D01*
X722506Y310542D01*
X722358Y310478D01*
X722345Y310468D01*
X722326Y310459D01*
X722038Y310240D01*
X722025Y310224D01*
X722012Y310214D01*
X721183Y309385D01*
X719176Y308554D01*
X717003Y308554D01*
X714996Y309385D01*
X714168Y310214D01*
X714041Y310315D01*
X713917Y310419D01*
X713900Y310428D01*
X713885Y310439D01*
X713740Y310510D01*
X713596Y310585D01*
X713577Y310589D01*
X713561Y310598D01*
X713402Y310635D01*
X713246Y310676D01*
X713227Y310677D01*
X713209Y310681D01*
X713047Y310683D01*
X712885Y310688D01*
X712866Y310685D01*
X712848Y310685D01*
X712689Y310651D01*
X712530Y310621D01*
X712512Y310614D01*
X712494Y310610D01*
X712346Y310542D01*
X712198Y310478D01*
X712185Y310468D01*
X712166Y310459D01*
X711878Y310240D01*
X711865Y310224D01*
X711852Y310214D01*
X711023Y309385D01*
X709016Y308554D01*
X706843Y308554D01*
X704836Y309385D01*
X704008Y310214D01*
X703881Y310315D01*
X703757Y310419D01*
X703740Y310428D01*
X703725Y310439D01*
X703580Y310510D01*
X703436Y310585D01*
X703417Y310589D01*
X703401Y310598D01*
X703242Y310635D01*
X703086Y310676D01*
X703067Y310677D01*
X703049Y310681D01*
X702887Y310683D01*
X702725Y310688D01*
X702706Y310685D01*
X702688Y310685D01*
X702529Y310651D01*
X702370Y310621D01*
X702352Y310614D01*
X702334Y310610D01*
X702186Y310542D01*
X702038Y310478D01*
X702025Y310468D01*
X702006Y310459D01*
X701718Y310240D01*
X701705Y310224D01*
X701692Y310214D01*
X700863Y309385D01*
X698856Y308554D01*
X696683Y308554D01*
X694676Y309385D01*
X693848Y310214D01*
X693721Y310315D01*
X693597Y310419D01*
X693580Y310428D01*
X693565Y310439D01*
X693420Y310510D01*
X693276Y310585D01*
X693257Y310589D01*
X693241Y310598D01*
X693082Y310635D01*
X692926Y310676D01*
X692907Y310677D01*
X692889Y310681D01*
X692727Y310683D01*
X692565Y310688D01*
X692546Y310685D01*
X692528Y310685D01*
X692369Y310651D01*
X692210Y310621D01*
X692192Y310614D01*
X692174Y310610D01*
X692026Y310542D01*
X691878Y310478D01*
X691865Y310468D01*
X691846Y310459D01*
X691558Y310240D01*
X691545Y310224D01*
X691532Y310214D01*
X690703Y309385D01*
X688696Y308554D01*
X686523Y308554D01*
X684516Y309385D01*
X682979Y310922D01*
X682148Y312929D01*
X682148Y315102D01*
X682979Y317109D01*
X683808Y317938D01*
X683909Y318064D01*
X684013Y318188D01*
X684022Y318205D01*
X684033Y318220D01*
X684104Y318366D01*
X684179Y318510D01*
X684184Y318528D01*
X684192Y318545D01*
X684229Y318703D01*
X684270Y318859D01*
X684271Y318878D01*
X684275Y318896D01*
X684277Y319058D01*
X684282Y319220D01*
X684279Y319239D01*
X684279Y319258D01*
X684245Y319416D01*
X684215Y319576D01*
X684208Y319593D01*
X684204Y319611D01*
X684136Y319759D01*
X684072Y319907D01*
X684062Y319921D01*
X684053Y319939D01*
X683834Y320227D01*
X683818Y320240D01*
X683808Y320253D01*
X682979Y321082D01*
X682148Y323089D01*
X682148Y325262D01*
X682979Y327269D01*
X683808Y328098D01*
X683909Y328224D01*
X684013Y328348D01*
X684022Y328365D01*
X684033Y328380D01*
X684105Y328526D01*
X684179Y328670D01*
X684184Y328688D01*
X684192Y328705D01*
X684229Y328863D01*
X684270Y329019D01*
X684271Y329038D01*
X684275Y329056D01*
X684277Y329218D01*
X684282Y329380D01*
X684279Y329399D01*
X684279Y329418D01*
X684245Y329576D01*
X684215Y329736D01*
X684208Y329753D01*
X684204Y329771D01*
X684136Y329919D01*
X684072Y330067D01*
X684062Y330081D01*
X684053Y330100D01*
X683834Y330387D01*
X683818Y330400D01*
X683808Y330413D01*
X682979Y331242D01*
X682148Y333249D01*
X682148Y335422D01*
X682374Y335968D01*
X682408Y336085D01*
X682450Y336199D01*
X682458Y336258D01*
X682475Y336315D01*
X682482Y336436D01*
X682498Y336557D01*
X682493Y336616D01*
X682497Y336676D01*
X682477Y336796D01*
X682467Y336917D01*
X682448Y336974D01*
X682439Y337032D01*
X682394Y337146D01*
X682357Y337261D01*
X682327Y337313D01*
X682305Y337368D01*
X682236Y337468D01*
X682174Y337573D01*
X682133Y337617D01*
X682100Y337666D01*
X682010Y337748D01*
X681927Y337837D01*
X681878Y337871D01*
X681835Y337911D01*
X681729Y337972D01*
X681629Y338041D01*
X681574Y338063D01*
X681522Y338093D01*
X681406Y338129D01*
X681293Y338174D01*
X681242Y338181D01*
X681177Y338201D01*
X680946Y338221D01*
X680861Y338232D01*
X665594Y338232D01*
X665433Y338214D01*
X665272Y338200D01*
X665254Y338194D01*
X665235Y338192D01*
X665082Y338139D01*
X664927Y338090D01*
X664911Y338081D01*
X664893Y338074D01*
X664755Y337989D01*
X664616Y337907D01*
X664602Y337895D01*
X664586Y337885D01*
X664470Y337771D01*
X664351Y337661D01*
X664341Y337645D01*
X664327Y337632D01*
X664239Y337496D01*
X664148Y337362D01*
X664141Y337345D01*
X664131Y337329D01*
X664074Y337177D01*
X664015Y337026D01*
X664012Y337009D01*
X664005Y336990D01*
X663957Y336632D01*
X663959Y336611D01*
X663957Y336595D01*
X663957Y256152D01*
X663964Y256089D01*
X663961Y256027D01*
X663984Y255910D01*
X663997Y255792D01*
X664017Y255733D01*
X664029Y255672D01*
X664076Y255563D01*
X664114Y255451D01*
X664147Y255397D01*
X664172Y255340D01*
X664227Y255267D01*
X664304Y255143D01*
X664387Y255058D01*
X664436Y254994D01*
X667744Y251686D01*
X667792Y251647D01*
X667835Y251601D01*
X667933Y251535D01*
X668026Y251461D01*
X668082Y251433D01*
X668134Y251398D01*
X668244Y251354D01*
X668351Y251302D01*
X668412Y251288D01*
X668470Y251265D01*
X668560Y251253D01*
X668702Y251219D01*
X668821Y251218D01*
X668902Y251207D01*
X674425Y251207D01*
X674487Y251214D01*
X674550Y251211D01*
X674666Y251234D01*
X674784Y251247D01*
X674843Y251267D01*
X674905Y251279D01*
X675014Y251326D01*
X675126Y251364D01*
X675179Y251397D01*
X675236Y251422D01*
X675309Y251477D01*
X675433Y251554D01*
X675518Y251637D01*
X675583Y251686D01*
X676284Y252388D01*
X678338Y253239D01*
X680562Y253239D01*
X682616Y252388D01*
X684188Y250816D01*
X685039Y248762D01*
X685039Y246538D01*
X684188Y244484D01*
X682616Y242912D01*
X680562Y242061D01*
X678338Y242061D01*
X676284Y242912D01*
X675583Y243614D01*
X675534Y243653D01*
X675491Y243699D01*
X675393Y243765D01*
X675301Y243839D01*
X675244Y243867D01*
X675192Y243902D01*
X675082Y243946D01*
X674976Y243998D01*
X674915Y244012D01*
X674856Y244035D01*
X674766Y244048D01*
X674624Y244081D01*
X674505Y244082D01*
X674425Y244093D01*
X665277Y244093D01*
X656843Y252527D01*
X656843Y336595D01*
X656825Y336756D01*
X656811Y336917D01*
X656805Y336935D01*
X656803Y336954D01*
X656751Y337107D01*
X656701Y337261D01*
X656692Y337278D01*
X656686Y337295D01*
X656601Y337433D01*
X656519Y337573D01*
X656506Y337587D01*
X656496Y337603D01*
X656382Y337719D01*
X656272Y337837D01*
X656256Y337848D01*
X656243Y337861D01*
X656107Y337950D01*
X655973Y338041D01*
X655956Y338048D01*
X655940Y338058D01*
X655788Y338114D01*
X655637Y338174D01*
X655621Y338176D01*
X655601Y338184D01*
X655243Y338232D01*
X655222Y338230D01*
X655206Y338232D01*
X535038Y338232D01*
X535038Y444500D01*
X535020Y444661D01*
X535005Y444823D01*
X535000Y444841D01*
X534998Y444859D01*
X534945Y445013D01*
X534896Y445167D01*
X534886Y445183D01*
X534880Y445201D01*
X534795Y445339D01*
X534713Y445479D01*
X534700Y445492D01*
X534690Y445508D01*
X534577Y445625D01*
X534466Y445743D01*
X534451Y445753D01*
X534438Y445767D01*
X534302Y445855D01*
X534168Y445946D01*
X534150Y445953D01*
X534134Y445964D01*
X533982Y446020D01*
X533832Y446080D01*
X533815Y446082D01*
X533796Y446089D01*
X533437Y446137D01*
X533417Y446135D01*
X533400Y446138D01*
X285750Y446138D01*
X285589Y446120D01*
X285427Y446105D01*
X285409Y446100D01*
X285391Y446098D01*
X285237Y446045D01*
X285083Y445996D01*
X285067Y445986D01*
X285049Y445980D01*
X284911Y445895D01*
X284771Y445813D01*
X284758Y445800D01*
X284742Y445790D01*
X284625Y445677D01*
X284507Y445566D01*
X284497Y445551D01*
X284483Y445538D01*
X284395Y445402D01*
X284304Y445268D01*
X284297Y445250D01*
X284286Y445234D01*
X284230Y445082D01*
X284170Y444932D01*
X284168Y444915D01*
X284161Y444896D01*
X284113Y444537D01*
X284115Y444517D01*
X284112Y444500D01*
X284112Y-13124D01*
X284130Y-13284D01*
X284145Y-13446D01*
X284150Y-13464D01*
X284152Y-13483D01*
X284205Y-13636D01*
X284254Y-13791D01*
X284264Y-13807D01*
X284270Y-13825D01*
X284355Y-13963D01*
X284437Y-14103D01*
X284450Y-14116D01*
X284460Y-14132D01*
X284573Y-14249D01*
X284684Y-14367D01*
X284699Y-14377D01*
X284712Y-14391D01*
X284848Y-14479D01*
X284982Y-14570D01*
X285000Y-14577D01*
X285016Y-14588D01*
X285167Y-14644D01*
X285318Y-14704D01*
X285335Y-14706D01*
X285354Y-14713D01*
X285713Y-14761D01*
X285733Y-14759D01*
X285750Y-14762D01*
X996763Y-14881D01*
X996764Y-14881D01*
X996950Y-14881D01*
X997069Y-14867D01*
G37*
G36*
X273068Y-14729D02*
X273068Y-14729D01*
X273086Y-14731D01*
X273268Y-14710D01*
X273451Y-14691D01*
X273468Y-14686D01*
X273485Y-14684D01*
X273660Y-14627D01*
X273836Y-14573D01*
X273851Y-14565D01*
X273868Y-14559D01*
X274028Y-14469D01*
X274190Y-14381D01*
X274203Y-14370D01*
X274219Y-14361D01*
X274358Y-14241D01*
X274499Y-14124D01*
X274510Y-14110D01*
X274524Y-14098D01*
X274636Y-13953D01*
X274751Y-13810D01*
X274759Y-13794D01*
X274770Y-13780D01*
X274852Y-13615D01*
X274937Y-13453D01*
X274942Y-13436D01*
X274950Y-13420D01*
X274997Y-13241D01*
X275048Y-13066D01*
X275050Y-13048D01*
X275054Y-13031D01*
X275081Y-12700D01*
X275081Y167132D01*
X275079Y167150D01*
X275081Y167168D01*
X275060Y167350D01*
X275041Y167533D01*
X275036Y167550D01*
X275034Y167567D01*
X274977Y167742D01*
X274923Y167918D01*
X274915Y167933D01*
X274909Y167950D01*
X274819Y168110D01*
X274731Y168272D01*
X274720Y168285D01*
X274711Y168301D01*
X274591Y168440D01*
X274474Y168581D01*
X274460Y168592D01*
X274448Y168606D01*
X274303Y168718D01*
X274160Y168833D01*
X274144Y168841D01*
X274130Y168852D01*
X273965Y168934D01*
X273803Y169019D01*
X273786Y169024D01*
X273770Y169032D01*
X273591Y169079D01*
X273416Y169130D01*
X273398Y169132D01*
X273381Y169136D01*
X273050Y169163D01*
X235995Y169163D01*
X235968Y169161D01*
X235941Y169163D01*
X235767Y169141D01*
X235594Y169123D01*
X235568Y169116D01*
X235542Y169112D01*
X235376Y169057D01*
X235209Y169005D01*
X235185Y168992D01*
X235160Y168984D01*
X235009Y168897D01*
X234855Y168813D01*
X234835Y168796D01*
X234811Y168783D01*
X234558Y168568D01*
X229704Y163714D01*
X229687Y163693D01*
X229666Y163676D01*
X229559Y163538D01*
X229449Y163402D01*
X229436Y163379D01*
X229420Y163357D01*
X229342Y163200D01*
X229260Y163046D01*
X229252Y163021D01*
X229240Y162997D01*
X229195Y162827D01*
X229145Y162661D01*
X229143Y162634D01*
X229136Y162608D01*
X229109Y162277D01*
X229109Y161448D01*
X228258Y159394D01*
X226686Y157822D01*
X224632Y156971D01*
X222408Y156971D01*
X220354Y157822D01*
X218782Y159394D01*
X217931Y161448D01*
X217931Y163672D01*
X218782Y165726D01*
X220354Y167298D01*
X222408Y168149D01*
X223237Y168149D01*
X223264Y168151D01*
X223291Y168149D01*
X223465Y168171D01*
X223638Y168189D01*
X223664Y168196D01*
X223690Y168200D01*
X223856Y168255D01*
X224023Y168307D01*
X224047Y168320D01*
X224072Y168328D01*
X224223Y168415D01*
X224377Y168499D01*
X224397Y168516D01*
X224421Y168529D01*
X224674Y168744D01*
X229528Y173598D01*
X232207Y176277D01*
X273050Y176277D01*
X273068Y176279D01*
X273086Y176277D01*
X273268Y176298D01*
X273451Y176317D01*
X273468Y176322D01*
X273485Y176324D01*
X273660Y176381D01*
X273836Y176435D01*
X273851Y176443D01*
X273868Y176449D01*
X274028Y176539D01*
X274190Y176627D01*
X274203Y176638D01*
X274219Y176647D01*
X274358Y176767D01*
X274499Y176884D01*
X274510Y176898D01*
X274524Y176910D01*
X274636Y177055D01*
X274751Y177198D01*
X274759Y177214D01*
X274770Y177228D01*
X274852Y177393D01*
X274937Y177555D01*
X274942Y177572D01*
X274950Y177588D01*
X274997Y177767D01*
X275048Y177942D01*
X275050Y177960D01*
X275054Y177977D01*
X275081Y178308D01*
X275081Y431292D01*
X275079Y431310D01*
X275081Y431328D01*
X275060Y431510D01*
X275041Y431693D01*
X275036Y431710D01*
X275034Y431727D01*
X274977Y431902D01*
X274923Y432078D01*
X274915Y432093D01*
X274909Y432110D01*
X274819Y432270D01*
X274731Y432432D01*
X274720Y432445D01*
X274711Y432461D01*
X274591Y432600D01*
X274474Y432741D01*
X274460Y432752D01*
X274448Y432766D01*
X274303Y432878D01*
X274160Y432993D01*
X274144Y433001D01*
X274130Y433012D01*
X273965Y433094D01*
X273803Y433179D01*
X273786Y433184D01*
X273770Y433192D01*
X273591Y433239D01*
X273416Y433290D01*
X273398Y433292D01*
X273381Y433296D01*
X273050Y433323D01*
X249028Y433323D01*
X249002Y433321D01*
X248975Y433323D01*
X248801Y433301D01*
X248628Y433283D01*
X248602Y433276D01*
X248576Y433272D01*
X248410Y433217D01*
X248243Y433165D01*
X248219Y433152D01*
X248194Y433144D01*
X248042Y433057D01*
X247889Y432973D01*
X247868Y432956D01*
X247845Y432943D01*
X247592Y432728D01*
X247006Y432142D01*
X244952Y431291D01*
X242728Y431291D01*
X240674Y432142D01*
X240088Y432728D01*
X240067Y432745D01*
X240050Y432766D01*
X239912Y432873D01*
X239776Y432983D01*
X239753Y432996D01*
X239732Y433012D01*
X239575Y433090D01*
X239421Y433172D01*
X239395Y433180D01*
X239371Y433192D01*
X239202Y433237D01*
X239035Y433287D01*
X239008Y433289D01*
X238982Y433296D01*
X238652Y433323D01*
X235995Y433323D01*
X235968Y433321D01*
X235941Y433323D01*
X235767Y433301D01*
X235594Y433283D01*
X235569Y433276D01*
X235542Y433272D01*
X235376Y433217D01*
X235209Y433165D01*
X235186Y433152D01*
X235160Y433144D01*
X235009Y433057D01*
X234855Y432973D01*
X234835Y432956D01*
X234811Y432943D01*
X234558Y432728D01*
X228376Y426546D01*
X208504Y426546D01*
X204354Y430696D01*
X204333Y430713D01*
X204315Y430734D01*
X204178Y430841D01*
X204042Y430951D01*
X204019Y430964D01*
X203997Y430980D01*
X203840Y431058D01*
X203686Y431140D01*
X203661Y431148D01*
X203637Y431160D01*
X203467Y431205D01*
X203301Y431255D01*
X203274Y431257D01*
X203248Y431264D01*
X202917Y431291D01*
X202088Y431291D01*
X200034Y432142D01*
X198462Y433714D01*
X197611Y435768D01*
X197611Y437992D01*
X198462Y440046D01*
X200034Y441618D01*
X202088Y442469D01*
X204312Y442469D01*
X206366Y441618D01*
X207938Y440046D01*
X208789Y437992D01*
X208789Y437163D01*
X208791Y437136D01*
X208789Y437109D01*
X208811Y436935D01*
X208829Y436762D01*
X208836Y436737D01*
X208840Y436710D01*
X208895Y436544D01*
X208947Y436377D01*
X208960Y436354D01*
X208968Y436328D01*
X209055Y436177D01*
X209139Y436023D01*
X209156Y436003D01*
X209169Y435979D01*
X209384Y435726D01*
X210855Y434255D01*
X210876Y434238D01*
X210894Y434217D01*
X211031Y434110D01*
X211167Y434000D01*
X211190Y433987D01*
X211212Y433971D01*
X211369Y433893D01*
X211523Y433811D01*
X211548Y433803D01*
X211572Y433791D01*
X211742Y433746D01*
X211908Y433696D01*
X211935Y433694D01*
X211961Y433687D01*
X212292Y433660D01*
X224588Y433660D01*
X224615Y433662D01*
X224642Y433660D01*
X224816Y433682D01*
X224989Y433700D01*
X225014Y433707D01*
X225041Y433711D01*
X225207Y433766D01*
X225374Y433818D01*
X225397Y433831D01*
X225423Y433839D01*
X225574Y433926D01*
X225728Y434010D01*
X225748Y434027D01*
X225772Y434040D01*
X226025Y434255D01*
X232207Y440437D01*
X238652Y440437D01*
X238678Y440439D01*
X238705Y440437D01*
X238879Y440459D01*
X239052Y440477D01*
X239078Y440484D01*
X239104Y440488D01*
X239270Y440543D01*
X239437Y440595D01*
X239461Y440608D01*
X239486Y440616D01*
X239638Y440703D01*
X239791Y440787D01*
X239812Y440804D01*
X239835Y440817D01*
X240088Y441032D01*
X240674Y441618D01*
X242728Y442469D01*
X244952Y442469D01*
X247006Y441618D01*
X247592Y441032D01*
X247613Y441015D01*
X247630Y440994D01*
X247768Y440887D01*
X247904Y440777D01*
X247927Y440764D01*
X247948Y440748D01*
X248105Y440670D01*
X248259Y440588D01*
X248285Y440580D01*
X248309Y440568D01*
X248478Y440523D01*
X248645Y440473D01*
X248672Y440471D01*
X248698Y440464D01*
X249028Y440437D01*
X273050Y440437D01*
X273068Y440439D01*
X273086Y440437D01*
X273268Y440458D01*
X273451Y440477D01*
X273468Y440482D01*
X273485Y440484D01*
X273660Y440541D01*
X273836Y440595D01*
X273851Y440603D01*
X273868Y440609D01*
X274028Y440699D01*
X274190Y440787D01*
X274203Y440798D01*
X274219Y440807D01*
X274358Y440927D01*
X274499Y441044D01*
X274510Y441058D01*
X274524Y441070D01*
X274636Y441215D01*
X274751Y441358D01*
X274759Y441374D01*
X274770Y441388D01*
X274852Y441553D01*
X274937Y441715D01*
X274942Y441732D01*
X274950Y441748D01*
X274997Y441927D01*
X275048Y442102D01*
X275050Y442120D01*
X275054Y442137D01*
X275081Y442468D01*
X275081Y448819D01*
X299212Y448819D01*
X299230Y448821D01*
X299248Y448819D01*
X299430Y448840D01*
X299613Y448859D01*
X299630Y448864D01*
X299647Y448866D01*
X299822Y448923D01*
X299998Y448977D01*
X300013Y448985D01*
X300030Y448991D01*
X300190Y449081D01*
X300352Y449169D01*
X300365Y449180D01*
X300381Y449189D01*
X300520Y449309D01*
X300661Y449426D01*
X300672Y449440D01*
X300686Y449452D01*
X300798Y449597D01*
X300913Y449740D01*
X300921Y449756D01*
X300932Y449770D01*
X301014Y449935D01*
X301099Y450097D01*
X301104Y450114D01*
X301112Y450131D01*
X301159Y450309D01*
X301210Y450484D01*
X301212Y450502D01*
X301216Y450519D01*
X301243Y450850D01*
X301243Y462172D01*
X301241Y462198D01*
X301243Y462225D01*
X301221Y462399D01*
X301203Y462572D01*
X301195Y462598D01*
X301192Y462625D01*
X301137Y462790D01*
X301085Y462957D01*
X301072Y462981D01*
X301064Y463006D01*
X300977Y463158D01*
X300893Y463311D01*
X300876Y463332D01*
X300863Y463355D01*
X300648Y463608D01*
X300062Y464194D01*
X299211Y466248D01*
X299211Y468472D01*
X300062Y470526D01*
X301634Y472098D01*
X303688Y472949D01*
X305912Y472949D01*
X307966Y472098D01*
X309538Y470526D01*
X310389Y468472D01*
X310389Y466248D01*
X309538Y464194D01*
X308952Y463608D01*
X308935Y463587D01*
X308914Y463570D01*
X308808Y463432D01*
X308697Y463297D01*
X308684Y463273D01*
X308668Y463252D01*
X308590Y463096D01*
X308508Y462941D01*
X308500Y462915D01*
X308488Y462891D01*
X308443Y462722D01*
X308393Y462555D01*
X308391Y462528D01*
X308384Y462502D01*
X308357Y462172D01*
X308357Y450850D01*
X308359Y450832D01*
X308357Y450814D01*
X308378Y450632D01*
X308397Y450449D01*
X308402Y450432D01*
X308404Y450415D01*
X308461Y450240D01*
X308515Y450064D01*
X308523Y450049D01*
X308529Y450032D01*
X308619Y449872D01*
X308707Y449710D01*
X308718Y449697D01*
X308727Y449681D01*
X308847Y449542D01*
X308964Y449401D01*
X308978Y449390D01*
X308990Y449377D01*
X309135Y449264D01*
X309278Y449149D01*
X309294Y449141D01*
X309308Y449130D01*
X309473Y449048D01*
X309635Y448963D01*
X309652Y448958D01*
X309668Y448950D01*
X309847Y448903D01*
X310022Y448852D01*
X310040Y448850D01*
X310057Y448846D01*
X310388Y448819D01*
X390652Y448819D01*
X390670Y448821D01*
X390688Y448819D01*
X390870Y448840D01*
X391053Y448859D01*
X391070Y448864D01*
X391087Y448866D01*
X391262Y448923D01*
X391438Y448977D01*
X391453Y448985D01*
X391470Y448991D01*
X391630Y449081D01*
X391792Y449169D01*
X391805Y449180D01*
X391821Y449189D01*
X391960Y449309D01*
X392101Y449426D01*
X392112Y449440D01*
X392126Y449452D01*
X392238Y449597D01*
X392353Y449740D01*
X392361Y449756D01*
X392372Y449770D01*
X392454Y449935D01*
X392539Y450097D01*
X392544Y450114D01*
X392552Y450131D01*
X392599Y450309D01*
X392650Y450484D01*
X392652Y450502D01*
X392656Y450519D01*
X392683Y450850D01*
X392683Y462172D01*
X392681Y462198D01*
X392683Y462225D01*
X392661Y462399D01*
X392643Y462572D01*
X392635Y462598D01*
X392632Y462625D01*
X392577Y462790D01*
X392525Y462957D01*
X392512Y462981D01*
X392504Y463006D01*
X392417Y463158D01*
X392333Y463311D01*
X392316Y463332D01*
X392303Y463355D01*
X392088Y463608D01*
X391502Y464194D01*
X390651Y466248D01*
X390651Y468472D01*
X391502Y470526D01*
X393074Y472098D01*
X395128Y472949D01*
X397352Y472949D01*
X399406Y472098D01*
X400978Y470526D01*
X401829Y468472D01*
X401829Y466248D01*
X400978Y464194D01*
X400392Y463608D01*
X400375Y463587D01*
X400354Y463570D01*
X400248Y463432D01*
X400137Y463297D01*
X400124Y463273D01*
X400108Y463252D01*
X400030Y463096D01*
X399948Y462941D01*
X399940Y462915D01*
X399928Y462891D01*
X399883Y462722D01*
X399833Y462555D01*
X399831Y462528D01*
X399824Y462502D01*
X399797Y462172D01*
X399797Y450850D01*
X399799Y450832D01*
X399797Y450814D01*
X399818Y450632D01*
X399837Y450449D01*
X399842Y450432D01*
X399844Y450415D01*
X399901Y450240D01*
X399955Y450064D01*
X399963Y450049D01*
X399969Y450032D01*
X400059Y449872D01*
X400147Y449710D01*
X400158Y449697D01*
X400167Y449681D01*
X400287Y449542D01*
X400404Y449401D01*
X400418Y449390D01*
X400430Y449377D01*
X400575Y449264D01*
X400718Y449149D01*
X400734Y449141D01*
X400748Y449130D01*
X400913Y449048D01*
X401075Y448963D01*
X401092Y448958D01*
X401108Y448950D01*
X401287Y448903D01*
X401462Y448852D01*
X401480Y448850D01*
X401497Y448846D01*
X401828Y448819D01*
X491756Y448819D01*
X491773Y448821D01*
X491791Y448819D01*
X491974Y448840D01*
X492156Y448859D01*
X492173Y448864D01*
X492191Y448866D01*
X492366Y448923D01*
X492541Y448977D01*
X492557Y448985D01*
X492574Y448991D01*
X492734Y449081D01*
X492895Y449169D01*
X492909Y449180D01*
X492924Y449189D01*
X493064Y449309D01*
X493204Y449426D01*
X493216Y449440D01*
X493229Y449452D01*
X493342Y449597D01*
X493457Y449740D01*
X493465Y449756D01*
X493476Y449770D01*
X493558Y449935D01*
X493642Y450097D01*
X493647Y450114D01*
X493655Y450131D01*
X493703Y450309D01*
X493754Y450484D01*
X493755Y450502D01*
X493760Y450519D01*
X493787Y450850D01*
X493787Y455704D01*
X493784Y455730D01*
X493786Y455757D01*
X493764Y455930D01*
X493747Y456104D01*
X493739Y456130D01*
X493736Y456156D01*
X493680Y456322D01*
X493629Y456489D01*
X493616Y456513D01*
X493608Y456538D01*
X493520Y456690D01*
X493437Y456843D01*
X493420Y456864D01*
X493407Y456887D01*
X493192Y457140D01*
X492606Y457726D01*
X491755Y459780D01*
X491755Y462004D01*
X492606Y464058D01*
X494178Y465630D01*
X496232Y466481D01*
X498455Y466481D01*
X500509Y465630D01*
X502082Y464058D01*
X502932Y462004D01*
X502932Y459780D01*
X502082Y457726D01*
X501495Y457140D01*
X501478Y457119D01*
X501458Y457102D01*
X501351Y456964D01*
X501240Y456828D01*
X501228Y456805D01*
X501211Y456784D01*
X501134Y456627D01*
X501052Y456473D01*
X501044Y456447D01*
X501032Y456423D01*
X500987Y456254D01*
X500937Y456087D01*
X500934Y456060D01*
X500927Y456034D01*
X500900Y455704D01*
X500900Y450850D01*
X500902Y450832D01*
X500901Y450814D01*
X500922Y450632D01*
X500940Y450449D01*
X500945Y450432D01*
X500948Y450415D01*
X501004Y450240D01*
X501058Y450064D01*
X501067Y450049D01*
X501072Y450032D01*
X501163Y449872D01*
X501250Y449710D01*
X501262Y449697D01*
X501270Y449681D01*
X501391Y449542D01*
X501508Y449401D01*
X501522Y449390D01*
X501533Y449377D01*
X501678Y449264D01*
X501822Y449149D01*
X501837Y449141D01*
X501852Y449130D01*
X502016Y449048D01*
X502179Y448963D01*
X502196Y448958D01*
X502212Y448950D01*
X502390Y448903D01*
X502566Y448852D01*
X502584Y448850D01*
X502601Y448846D01*
X502932Y448819D01*
X620993Y448819D01*
X621010Y448821D01*
X621028Y448819D01*
X621211Y448840D01*
X621393Y448859D01*
X621410Y448864D01*
X621428Y448866D01*
X621603Y448923D01*
X621778Y448977D01*
X621794Y448985D01*
X621811Y448991D01*
X621971Y449081D01*
X622132Y449169D01*
X622146Y449180D01*
X622161Y449189D01*
X622301Y449309D01*
X622441Y449426D01*
X622453Y449440D01*
X622466Y449452D01*
X622579Y449597D01*
X622694Y449740D01*
X622702Y449756D01*
X622713Y449770D01*
X622795Y449935D01*
X622879Y450097D01*
X622884Y450114D01*
X622892Y450131D01*
X622940Y450309D01*
X622991Y450484D01*
X622992Y450502D01*
X622997Y450519D01*
X623024Y450850D01*
X623024Y632460D01*
X623022Y632478D01*
X623024Y632496D01*
X623002Y632678D01*
X622984Y632861D01*
X622979Y632878D01*
X622977Y632895D01*
X622920Y633070D01*
X622866Y633246D01*
X622857Y633261D01*
X622852Y633278D01*
X622761Y633438D01*
X622674Y633600D01*
X622663Y633613D01*
X622654Y633629D01*
X622534Y633768D01*
X622416Y633909D01*
X622402Y633920D01*
X622391Y633934D01*
X622246Y634046D01*
X622103Y634161D01*
X622087Y634169D01*
X622073Y634180D01*
X621908Y634262D01*
X621745Y634347D01*
X621728Y634352D01*
X621712Y634360D01*
X621534Y634407D01*
X621358Y634458D01*
X621341Y634460D01*
X621323Y634464D01*
X620993Y634491D01*
X159311Y634491D01*
X159295Y634490D01*
X159279Y634491D01*
X159095Y634470D01*
X158910Y634451D01*
X158895Y634447D01*
X158879Y634445D01*
X158703Y634388D01*
X158526Y634333D01*
X158511Y634326D01*
X158496Y634321D01*
X158334Y634230D01*
X158171Y634141D01*
X158159Y634131D01*
X158145Y634123D01*
X158004Y634002D01*
X157862Y633884D01*
X157852Y633871D01*
X157840Y633861D01*
X157725Y633713D01*
X157610Y633570D01*
X157603Y633556D01*
X157593Y633543D01*
X157509Y633376D01*
X157424Y633213D01*
X157420Y633197D01*
X157413Y633183D01*
X157364Y633004D01*
X157313Y632826D01*
X157312Y632810D01*
X157307Y632794D01*
X157280Y632464D01*
X156906Y420418D01*
X156921Y420271D01*
X156927Y420123D01*
X156940Y420071D01*
X156946Y420017D01*
X156989Y419876D01*
X157024Y419732D01*
X157047Y419684D01*
X157063Y419632D01*
X157133Y419502D01*
X157197Y419368D01*
X157229Y419325D01*
X157254Y419278D01*
X157349Y419164D01*
X157437Y419045D01*
X157477Y419010D01*
X157511Y418968D01*
X157627Y418875D01*
X157737Y418776D01*
X157783Y418749D01*
X157825Y418715D01*
X157956Y418647D01*
X158083Y418572D01*
X158134Y418554D01*
X158182Y418529D01*
X158324Y418488D01*
X158464Y418439D01*
X158517Y418432D01*
X158568Y418417D01*
X158716Y418405D01*
X158863Y418385D01*
X158916Y418388D01*
X158970Y418384D01*
X159116Y418401D01*
X159264Y418410D01*
X159316Y418424D01*
X159370Y418430D01*
X159510Y418475D01*
X159653Y418514D01*
X159708Y418540D01*
X159753Y418554D01*
X159826Y418595D01*
X159953Y418655D01*
X161738Y419686D01*
X168138Y421401D01*
X174762Y421401D01*
X181162Y419686D01*
X186899Y416374D01*
X191584Y411689D01*
X194896Y405952D01*
X196611Y399552D01*
X196611Y392928D01*
X194896Y386528D01*
X191584Y380791D01*
X186899Y376106D01*
X181162Y372794D01*
X174762Y371079D01*
X168138Y371079D01*
X161738Y372794D01*
X159868Y373874D01*
X159737Y373933D01*
X159609Y374000D01*
X159554Y374016D01*
X159501Y374039D01*
X159361Y374072D01*
X159222Y374112D01*
X159165Y374117D01*
X159109Y374130D01*
X158965Y374133D01*
X158821Y374146D01*
X158764Y374139D01*
X158706Y374141D01*
X158564Y374116D01*
X158421Y374099D01*
X158366Y374082D01*
X158310Y374072D01*
X158175Y374020D01*
X158038Y373975D01*
X157988Y373947D01*
X157934Y373926D01*
X157813Y373849D01*
X157687Y373778D01*
X157643Y373740D01*
X157595Y373710D01*
X157491Y373610D01*
X157382Y373515D01*
X157346Y373470D01*
X157305Y373430D01*
X157223Y373312D01*
X157134Y373198D01*
X157109Y373146D01*
X157076Y373099D01*
X157019Y372967D01*
X156954Y372837D01*
X156939Y372782D01*
X156917Y372729D01*
X156887Y372588D01*
X156849Y372449D01*
X156844Y372384D01*
X156833Y372336D01*
X156833Y372252D01*
X156821Y372118D01*
X156591Y241299D01*
X156605Y241152D01*
X156612Y241004D01*
X156625Y240952D01*
X156630Y240898D01*
X156673Y240757D01*
X156709Y240613D01*
X156732Y240565D01*
X156748Y240513D01*
X156818Y240383D01*
X156881Y240249D01*
X156913Y240206D01*
X156939Y240159D01*
X157033Y240045D01*
X157122Y239926D01*
X157162Y239891D01*
X157196Y239849D01*
X157311Y239756D01*
X157421Y239657D01*
X157467Y239630D01*
X157509Y239596D01*
X157641Y239528D01*
X157768Y239453D01*
X157819Y239435D01*
X157866Y239410D01*
X158008Y239369D01*
X158148Y239320D01*
X158201Y239313D01*
X158253Y239298D01*
X158401Y239286D01*
X158547Y239266D01*
X158601Y239269D01*
X158654Y239264D01*
X158801Y239281D01*
X158949Y239291D01*
X159001Y239305D01*
X159054Y239311D01*
X159195Y239356D01*
X159338Y239394D01*
X159393Y239421D01*
X159437Y239435D01*
X159511Y239476D01*
X159638Y239536D01*
X163087Y241527D01*
X169486Y243242D01*
X176111Y243242D01*
X178997Y242469D01*
X179078Y242455D01*
X179157Y242433D01*
X179277Y242423D01*
X179395Y242404D01*
X179477Y242406D01*
X179559Y242400D01*
X179677Y242414D01*
X179797Y242418D01*
X179877Y242437D01*
X179958Y242447D01*
X180072Y242484D01*
X180189Y242512D01*
X180263Y242546D01*
X180341Y242572D01*
X180446Y242630D01*
X180554Y242681D01*
X180620Y242729D01*
X180692Y242769D01*
X180782Y242848D01*
X180879Y242918D01*
X180934Y242979D01*
X180997Y243033D01*
X181070Y243127D01*
X181151Y243215D01*
X181193Y243286D01*
X181243Y243351D01*
X181297Y243458D01*
X181358Y243560D01*
X181386Y243638D01*
X181423Y243711D01*
X181454Y243827D01*
X181494Y243939D01*
X181506Y244021D01*
X181527Y244100D01*
X181540Y244252D01*
X181552Y244338D01*
X181550Y244378D01*
X181554Y244431D01*
X181554Y245767D01*
X182405Y247821D01*
X183977Y249393D01*
X186031Y250244D01*
X188255Y250244D01*
X190309Y249393D01*
X191881Y247821D01*
X192732Y245767D01*
X192732Y243544D01*
X191881Y241490D01*
X190270Y239879D01*
X190267Y239877D01*
X190101Y239788D01*
X190091Y239780D01*
X190079Y239773D01*
X189936Y239652D01*
X189791Y239532D01*
X189782Y239521D01*
X189772Y239513D01*
X189656Y239365D01*
X189537Y239219D01*
X189531Y239207D01*
X189522Y239197D01*
X189437Y239028D01*
X189350Y238863D01*
X189346Y238850D01*
X189340Y238838D01*
X189289Y238656D01*
X189237Y238476D01*
X189236Y238463D01*
X189232Y238450D01*
X189218Y238261D01*
X189202Y238075D01*
X189204Y238062D01*
X189203Y238049D01*
X189226Y237861D01*
X189247Y237675D01*
X189251Y237662D01*
X189253Y237649D01*
X189313Y237471D01*
X189370Y237292D01*
X189377Y237280D01*
X189381Y237267D01*
X189476Y237104D01*
X189567Y236940D01*
X189575Y236930D01*
X189582Y236919D01*
X189797Y236666D01*
X192932Y233530D01*
X196244Y227793D01*
X197959Y221394D01*
X197959Y214769D01*
X196244Y208370D01*
X192932Y202632D01*
X188247Y197948D01*
X182510Y194635D01*
X176111Y192921D01*
X169486Y192921D01*
X163087Y194635D01*
X159556Y196674D01*
X159425Y196733D01*
X159297Y196800D01*
X159242Y196816D01*
X159189Y196839D01*
X159049Y196872D01*
X158910Y196912D01*
X158853Y196917D01*
X158797Y196930D01*
X158653Y196933D01*
X158509Y196946D01*
X158452Y196939D01*
X158394Y196941D01*
X158252Y196916D01*
X158109Y196899D01*
X158054Y196882D01*
X157998Y196872D01*
X157863Y196820D01*
X157726Y196775D01*
X157676Y196747D01*
X157622Y196726D01*
X157501Y196649D01*
X157375Y196578D01*
X157331Y196540D01*
X157283Y196510D01*
X157179Y196410D01*
X157070Y196315D01*
X157034Y196270D01*
X156993Y196230D01*
X156911Y196112D01*
X156822Y195998D01*
X156797Y195946D01*
X156764Y195899D01*
X156707Y195767D01*
X156642Y195637D01*
X156627Y195582D01*
X156605Y195529D01*
X156575Y195388D01*
X156537Y195249D01*
X156532Y195184D01*
X156521Y195136D01*
X156521Y195052D01*
X156509Y194918D01*
X156144Y-12696D01*
X156146Y-12716D01*
X156144Y-12736D01*
X156165Y-12916D01*
X156183Y-13097D01*
X156189Y-13116D01*
X156191Y-13135D01*
X156247Y-13308D01*
X156300Y-13482D01*
X156310Y-13499D01*
X156316Y-13518D01*
X156406Y-13677D01*
X156492Y-13837D01*
X156504Y-13852D01*
X156514Y-13869D01*
X156633Y-14006D01*
X156749Y-14146D01*
X156764Y-14159D01*
X156777Y-14174D01*
X156920Y-14284D01*
X157062Y-14399D01*
X157080Y-14408D01*
X157095Y-14420D01*
X157258Y-14501D01*
X157419Y-14585D01*
X157438Y-14591D01*
X157456Y-14600D01*
X157632Y-14647D01*
X157806Y-14697D01*
X157825Y-14699D01*
X157844Y-14704D01*
X158175Y-14731D01*
X273050Y-14731D01*
X273068Y-14729D01*
G37*
%LPC*%
G36*
X488816Y9539D02*
X488816Y9539D01*
X484428Y11356D01*
X481069Y14715D01*
X480009Y17275D01*
X479939Y17402D01*
X479874Y17532D01*
X479852Y17560D01*
X479835Y17591D01*
X479738Y17700D01*
X479647Y17813D01*
X479619Y17835D01*
X479595Y17862D01*
X479477Y17947D01*
X479363Y18037D01*
X479331Y18052D01*
X479302Y18073D01*
X479168Y18131D01*
X479037Y18193D01*
X479003Y18201D01*
X478970Y18215D01*
X478827Y18242D01*
X478685Y18274D01*
X478649Y18275D01*
X478615Y18281D01*
X478469Y18276D01*
X478324Y18276D01*
X478289Y18269D01*
X478253Y18267D01*
X478113Y18230D01*
X477971Y18199D01*
X477939Y18184D01*
X477904Y18175D01*
X477775Y18107D01*
X477643Y18046D01*
X477615Y18024D01*
X477584Y18008D01*
X477472Y17914D01*
X477358Y17825D01*
X477335Y17797D01*
X477308Y17774D01*
X477220Y17659D01*
X477127Y17547D01*
X477113Y17518D01*
X477089Y17486D01*
X476940Y17157D01*
X476939Y17155D01*
X476939Y17154D01*
X476854Y16895D01*
X476001Y15220D01*
X474897Y13700D01*
X473568Y12371D01*
X472048Y11267D01*
X470373Y10414D01*
X468586Y9833D01*
X468330Y9792D01*
X468330Y20576D01*
X468312Y20737D01*
X468298Y20898D01*
X468292Y20916D01*
X468290Y20935D01*
X468237Y21088D01*
X468188Y21243D01*
X468178Y21259D01*
X468172Y21276D01*
X468087Y21415D01*
X468049Y21480D01*
X468139Y21612D01*
X468146Y21629D01*
X468156Y21645D01*
X468212Y21797D01*
X468272Y21948D01*
X468274Y21964D01*
X468281Y21984D01*
X468329Y22342D01*
X468327Y22363D01*
X468330Y22379D01*
X468330Y33163D01*
X468586Y33122D01*
X470373Y32541D01*
X472048Y31688D01*
X473568Y30584D01*
X474897Y29255D01*
X476001Y27735D01*
X476854Y26060D01*
X476939Y25801D01*
X476998Y25669D01*
X477053Y25534D01*
X477073Y25504D01*
X477088Y25472D01*
X477175Y25356D01*
X477257Y25236D01*
X477284Y25212D01*
X477305Y25183D01*
X477416Y25089D01*
X477523Y24990D01*
X477553Y24972D01*
X477581Y24949D01*
X477709Y24882D01*
X477835Y24809D01*
X477869Y24798D01*
X477901Y24782D01*
X478041Y24744D01*
X478180Y24700D01*
X478215Y24697D01*
X478250Y24688D01*
X478395Y24682D01*
X478540Y24670D01*
X478575Y24675D01*
X478611Y24674D01*
X478754Y24700D01*
X478898Y24720D01*
X478931Y24732D01*
X478966Y24739D01*
X479100Y24795D01*
X479236Y24846D01*
X479266Y24866D01*
X479299Y24880D01*
X479417Y24964D01*
X479539Y25044D01*
X479564Y25070D01*
X479592Y25091D01*
X479689Y25199D01*
X479790Y25304D01*
X479806Y25331D01*
X479833Y25361D01*
X480008Y25677D01*
X480008Y25679D01*
X480009Y25680D01*
X481069Y28240D01*
X484428Y31599D01*
X486877Y32613D01*
X486896Y32624D01*
X486917Y32630D01*
X487054Y32711D01*
X487193Y32787D01*
X487210Y32802D01*
X487229Y32813D01*
X487345Y32922D01*
X487464Y33027D01*
X487477Y33045D01*
X487493Y33060D01*
X487582Y33191D01*
X487676Y33320D01*
X487684Y33340D01*
X487697Y33358D01*
X487755Y33506D01*
X487818Y33652D01*
X487822Y33674D01*
X487830Y33694D01*
X487841Y33780D01*
X487883Y34008D01*
X487881Y34075D01*
X487888Y34126D01*
X487888Y195702D01*
X487885Y195724D01*
X487887Y195746D01*
X487865Y195903D01*
X487848Y196061D01*
X487841Y196082D01*
X487838Y196104D01*
X487782Y196253D01*
X487730Y196403D01*
X487719Y196422D01*
X487711Y196442D01*
X487624Y196576D01*
X487540Y196711D01*
X487525Y196726D01*
X487513Y196745D01*
X487399Y196855D01*
X487288Y196969D01*
X487269Y196981D01*
X487253Y196996D01*
X487179Y197040D01*
X486985Y197166D01*
X486922Y197189D01*
X486877Y197215D01*
X485368Y197840D01*
X483590Y199618D01*
X482627Y201942D01*
X482627Y204458D01*
X483590Y206782D01*
X485368Y208560D01*
X487692Y209523D01*
X490208Y209523D01*
X492532Y208560D01*
X494310Y206782D01*
X495273Y204458D01*
X495273Y201942D01*
X494618Y200361D01*
X494589Y200262D01*
X494551Y200166D01*
X494542Y200101D01*
X494517Y200014D01*
X494506Y199830D01*
X494493Y199734D01*
X494493Y34126D01*
X494496Y34104D01*
X494494Y34082D01*
X494516Y33924D01*
X494533Y33767D01*
X494540Y33746D01*
X494543Y33724D01*
X494599Y33575D01*
X494651Y33425D01*
X494662Y33406D01*
X494670Y33386D01*
X494757Y33253D01*
X494840Y33118D01*
X494856Y33102D01*
X494868Y33083D01*
X494982Y32973D01*
X495093Y32859D01*
X495112Y32847D01*
X495127Y32832D01*
X495202Y32789D01*
X495396Y32662D01*
X495459Y32639D01*
X495504Y32613D01*
X497953Y31599D01*
X501312Y28240D01*
X502377Y25667D01*
X502417Y25596D01*
X502447Y25520D01*
X502504Y25438D01*
X502552Y25350D01*
X502606Y25289D01*
X502652Y25222D01*
X502725Y25154D01*
X502791Y25080D01*
X502857Y25032D01*
X502917Y24977D01*
X503003Y24926D01*
X503084Y24868D01*
X503159Y24836D01*
X503229Y24795D01*
X503325Y24765D01*
X503417Y24726D01*
X503496Y24711D01*
X503574Y24687D01*
X503674Y24678D01*
X503772Y24660D01*
X503853Y24663D01*
X503934Y24656D01*
X504033Y24670D01*
X504133Y24674D01*
X504212Y24695D01*
X504292Y24706D01*
X504386Y24741D01*
X504482Y24767D01*
X504555Y24804D01*
X504631Y24833D01*
X504714Y24887D01*
X504803Y24934D01*
X504865Y24986D01*
X504933Y25031D01*
X505003Y25102D01*
X505079Y25167D01*
X505128Y25232D01*
X505185Y25290D01*
X505225Y25360D01*
X505297Y25455D01*
X505357Y25588D01*
X505403Y25667D01*
X506469Y28240D01*
X509828Y31599D01*
X512277Y32613D01*
X512296Y32624D01*
X512317Y32630D01*
X512454Y32711D01*
X512593Y32787D01*
X512610Y32802D01*
X512629Y32813D01*
X512745Y32922D01*
X512864Y33027D01*
X512877Y33045D01*
X512893Y33060D01*
X512982Y33191D01*
X513076Y33320D01*
X513084Y33340D01*
X513097Y33358D01*
X513155Y33506D01*
X513218Y33652D01*
X513222Y33674D01*
X513230Y33694D01*
X513241Y33780D01*
X513283Y34008D01*
X513281Y34075D01*
X513288Y34126D01*
X513288Y208402D01*
X513285Y208424D01*
X513287Y208446D01*
X513265Y208603D01*
X513248Y208761D01*
X513241Y208782D01*
X513238Y208804D01*
X513182Y208953D01*
X513130Y209103D01*
X513119Y209122D01*
X513111Y209142D01*
X513024Y209276D01*
X512940Y209411D01*
X512925Y209426D01*
X512913Y209445D01*
X512799Y209555D01*
X512688Y209669D01*
X512669Y209681D01*
X512653Y209696D01*
X512579Y209740D01*
X512385Y209866D01*
X512322Y209889D01*
X512277Y209915D01*
X510768Y210540D01*
X508990Y212318D01*
X508027Y214642D01*
X508027Y217158D01*
X508990Y219482D01*
X510768Y221260D01*
X513092Y222223D01*
X515608Y222223D01*
X517932Y221260D01*
X519710Y219482D01*
X520673Y217158D01*
X520673Y214642D01*
X520018Y213061D01*
X519989Y212962D01*
X519951Y212866D01*
X519942Y212801D01*
X519917Y212714D01*
X519906Y212530D01*
X519893Y212434D01*
X519893Y34126D01*
X519896Y34104D01*
X519894Y34082D01*
X519916Y33924D01*
X519933Y33767D01*
X519940Y33746D01*
X519943Y33724D01*
X519999Y33575D01*
X520051Y33425D01*
X520062Y33406D01*
X520070Y33386D01*
X520157Y33253D01*
X520240Y33118D01*
X520256Y33102D01*
X520268Y33083D01*
X520382Y32973D01*
X520493Y32859D01*
X520512Y32847D01*
X520527Y32832D01*
X520602Y32789D01*
X520796Y32662D01*
X520859Y32639D01*
X520904Y32613D01*
X523353Y31599D01*
X526712Y28240D01*
X528327Y24339D01*
X528367Y24268D01*
X528397Y24193D01*
X528453Y24110D01*
X528502Y24023D01*
X528556Y23962D01*
X528602Y23895D01*
X528675Y23827D01*
X528741Y23752D01*
X528807Y23705D01*
X528867Y23649D01*
X528953Y23599D01*
X529034Y23541D01*
X529109Y23509D01*
X529179Y23468D01*
X529275Y23438D01*
X529366Y23398D01*
X529446Y23384D01*
X529524Y23359D01*
X529624Y23351D01*
X529722Y23333D01*
X529803Y23336D01*
X529884Y23329D01*
X529983Y23343D01*
X530083Y23347D01*
X530162Y23367D01*
X530242Y23379D01*
X530336Y23414D01*
X530432Y23439D01*
X530504Y23477D01*
X530581Y23505D01*
X530664Y23560D01*
X530753Y23606D01*
X530815Y23659D01*
X530883Y23703D01*
X530953Y23775D01*
X531029Y23839D01*
X531078Y23904D01*
X531134Y23963D01*
X531175Y24033D01*
X531247Y24128D01*
X531307Y24260D01*
X531353Y24339D01*
X532731Y27665D01*
X535803Y30737D01*
X539818Y32400D01*
X544163Y32400D01*
X548178Y30737D01*
X551250Y27665D01*
X552913Y23650D01*
X552913Y19305D01*
X551250Y15290D01*
X548178Y12218D01*
X544163Y10555D01*
X539818Y10555D01*
X535803Y12218D01*
X532731Y15290D01*
X531353Y18616D01*
X531314Y18687D01*
X531284Y18762D01*
X531227Y18845D01*
X531179Y18932D01*
X531125Y18993D01*
X531079Y19060D01*
X531006Y19128D01*
X530939Y19203D01*
X530873Y19250D01*
X530814Y19306D01*
X530727Y19356D01*
X530646Y19414D01*
X530572Y19446D01*
X530501Y19487D01*
X530406Y19517D01*
X530314Y19557D01*
X530234Y19571D01*
X530157Y19596D01*
X530057Y19604D01*
X529959Y19622D01*
X529878Y19619D01*
X529796Y19626D01*
X529697Y19612D01*
X529598Y19608D01*
X529519Y19588D01*
X529438Y19576D01*
X529345Y19542D01*
X529248Y19516D01*
X529176Y19478D01*
X529100Y19450D01*
X529017Y19395D01*
X528928Y19349D01*
X528866Y19296D01*
X528798Y19252D01*
X528728Y19180D01*
X528652Y19116D01*
X528603Y19051D01*
X528546Y18992D01*
X528505Y18922D01*
X528434Y18827D01*
X528373Y18695D01*
X528327Y18616D01*
X526712Y14715D01*
X523353Y11356D01*
X518965Y9539D01*
X514216Y9539D01*
X509828Y11356D01*
X506469Y14715D01*
X505403Y17288D01*
X505364Y17360D01*
X505334Y17435D01*
X505277Y17517D01*
X505229Y17605D01*
X505175Y17666D01*
X505129Y17733D01*
X505056Y17801D01*
X504989Y17875D01*
X504924Y17923D01*
X504864Y17978D01*
X504777Y18029D01*
X504696Y18087D01*
X504622Y18119D01*
X504551Y18160D01*
X504456Y18190D01*
X504364Y18229D01*
X504284Y18244D01*
X504207Y18268D01*
X504107Y18277D01*
X504009Y18295D01*
X503928Y18292D01*
X503847Y18299D01*
X503748Y18285D01*
X503648Y18281D01*
X503569Y18260D01*
X503489Y18249D01*
X503395Y18214D01*
X503298Y18188D01*
X503226Y18151D01*
X503150Y18122D01*
X503066Y18067D01*
X502978Y18021D01*
X502916Y17969D01*
X502848Y17924D01*
X502778Y17852D01*
X502702Y17788D01*
X502653Y17723D01*
X502596Y17665D01*
X502555Y17595D01*
X502484Y17500D01*
X502423Y17367D01*
X502377Y17288D01*
X501312Y14715D01*
X497953Y11356D01*
X493565Y9539D01*
X488816Y9539D01*
G37*
%LPD*%
%LPC*%
G36*
X462995Y9833D02*
X462995Y9833D01*
X461207Y10414D01*
X459533Y11267D01*
X458013Y12371D01*
X456684Y13700D01*
X455579Y15220D01*
X454726Y16895D01*
X454159Y18642D01*
X454099Y18774D01*
X454045Y18909D01*
X454024Y18938D01*
X454010Y18971D01*
X453922Y19087D01*
X453840Y19207D01*
X453814Y19231D01*
X453792Y19260D01*
X453681Y19354D01*
X453575Y19452D01*
X453544Y19470D01*
X453517Y19493D01*
X453388Y19561D01*
X453262Y19634D01*
X453228Y19645D01*
X453197Y19661D01*
X453056Y19699D01*
X452918Y19742D01*
X452882Y19745D01*
X452848Y19755D01*
X452702Y19760D01*
X452557Y19773D01*
X452522Y19768D01*
X452486Y19769D01*
X452344Y19743D01*
X452199Y19723D01*
X452166Y19711D01*
X452131Y19704D01*
X451997Y19647D01*
X451861Y19596D01*
X451831Y19577D01*
X451798Y19563D01*
X451681Y19478D01*
X451559Y19398D01*
X451534Y19373D01*
X451505Y19352D01*
X451408Y19243D01*
X451307Y19139D01*
X451291Y19112D01*
X451265Y19082D01*
X451090Y18766D01*
X451089Y18764D01*
X451088Y18762D01*
X449650Y15290D01*
X446578Y12218D01*
X442563Y10555D01*
X438218Y10555D01*
X434203Y12218D01*
X431131Y15290D01*
X429468Y19305D01*
X429468Y23650D01*
X431131Y27665D01*
X434203Y30737D01*
X435823Y31408D01*
X435842Y31419D01*
X435863Y31426D01*
X436000Y31506D01*
X436139Y31582D01*
X436156Y31597D01*
X436175Y31608D01*
X436291Y31717D01*
X436410Y31822D01*
X436423Y31840D01*
X436439Y31855D01*
X436528Y31986D01*
X436622Y32115D01*
X436630Y32135D01*
X436643Y32153D01*
X436701Y32301D01*
X436764Y32447D01*
X436768Y32469D01*
X436776Y32489D01*
X436787Y32575D01*
X436829Y32803D01*
X436827Y32870D01*
X436834Y32921D01*
X436834Y258498D01*
X436827Y258560D01*
X436829Y258623D01*
X436807Y258740D01*
X436794Y258857D01*
X436773Y258916D01*
X436762Y258978D01*
X436715Y259087D01*
X436676Y259199D01*
X436643Y259252D01*
X436618Y259310D01*
X436563Y259382D01*
X436486Y259506D01*
X436403Y259592D01*
X436354Y259656D01*
X417316Y278694D01*
X417268Y278733D01*
X417225Y278779D01*
X417127Y278845D01*
X417034Y278919D01*
X416978Y278947D01*
X416926Y278982D01*
X416816Y279026D01*
X416709Y279078D01*
X416648Y279092D01*
X416590Y279115D01*
X416500Y279128D01*
X416358Y279161D01*
X416239Y279162D01*
X416158Y279173D01*
X415504Y279173D01*
X413554Y279981D01*
X412061Y281474D01*
X411253Y283424D01*
X411253Y285536D01*
X412061Y287486D01*
X413554Y288979D01*
X415504Y289787D01*
X417616Y289787D01*
X419566Y288979D01*
X421059Y287486D01*
X421867Y285536D01*
X421867Y284882D01*
X421874Y284819D01*
X421871Y284757D01*
X421894Y284640D01*
X421907Y284522D01*
X421927Y284463D01*
X421939Y284402D01*
X421986Y284293D01*
X422024Y284181D01*
X422057Y284127D01*
X422082Y284070D01*
X422137Y283997D01*
X422214Y283873D01*
X422297Y283788D01*
X422346Y283724D01*
X443947Y262123D01*
X443947Y32921D01*
X443950Y32899D01*
X443948Y32877D01*
X443970Y32719D01*
X443987Y32562D01*
X443994Y32541D01*
X443997Y32519D01*
X444053Y32370D01*
X444105Y32220D01*
X444116Y32202D01*
X444124Y32181D01*
X444211Y32048D01*
X444294Y31913D01*
X444310Y31897D01*
X444322Y31878D01*
X444436Y31768D01*
X444547Y31654D01*
X444566Y31642D01*
X444581Y31627D01*
X444656Y31584D01*
X444850Y31457D01*
X444913Y31434D01*
X444958Y31408D01*
X446578Y30737D01*
X449650Y27665D01*
X451088Y24193D01*
X451158Y24065D01*
X451223Y23935D01*
X451245Y23907D01*
X451263Y23876D01*
X451359Y23767D01*
X451451Y23654D01*
X451478Y23632D01*
X451502Y23605D01*
X451620Y23520D01*
X451734Y23430D01*
X451766Y23415D01*
X451795Y23394D01*
X451929Y23337D01*
X452060Y23274D01*
X452095Y23266D01*
X452127Y23252D01*
X452271Y23225D01*
X452412Y23193D01*
X452448Y23193D01*
X452483Y23186D01*
X452628Y23192D01*
X452773Y23191D01*
X452808Y23198D01*
X452844Y23200D01*
X452985Y23237D01*
X453126Y23268D01*
X453159Y23283D01*
X453193Y23293D01*
X453322Y23360D01*
X453454Y23421D01*
X453482Y23443D01*
X453514Y23460D01*
X453625Y23553D01*
X453740Y23642D01*
X453763Y23670D01*
X453790Y23693D01*
X453877Y23809D01*
X453970Y23921D01*
X453984Y23949D01*
X454008Y23981D01*
X454158Y24310D01*
X454158Y24312D01*
X454159Y24313D01*
X454726Y26060D01*
X455579Y27735D01*
X456684Y29255D01*
X458013Y30584D01*
X459533Y31688D01*
X461207Y32541D01*
X462995Y33122D01*
X463251Y33163D01*
X463251Y22379D01*
X463269Y22219D01*
X463283Y22057D01*
X463289Y22039D01*
X463291Y22020D01*
X463344Y21867D01*
X463393Y21712D01*
X463403Y21696D01*
X463409Y21679D01*
X463494Y21540D01*
X463532Y21475D01*
X463442Y21343D01*
X463435Y21326D01*
X463425Y21310D01*
X463369Y21158D01*
X463309Y21007D01*
X463307Y20991D01*
X463300Y20971D01*
X463252Y20613D01*
X463253Y20592D01*
X463251Y20576D01*
X463251Y9792D01*
X462995Y9833D01*
G37*
%LPD*%
%LPC*%
G36*
X805394Y124233D02*
X805394Y124233D01*
X803444Y125041D01*
X801951Y126534D01*
X801143Y128484D01*
X801143Y130596D01*
X801951Y132546D01*
X802922Y133517D01*
X802961Y133565D01*
X803007Y133608D01*
X803073Y133706D01*
X803147Y133799D01*
X803175Y133855D01*
X803210Y133907D01*
X803254Y134017D01*
X803306Y134124D01*
X803320Y134185D01*
X803343Y134243D01*
X803356Y134333D01*
X803389Y134475D01*
X803390Y134594D01*
X803401Y134674D01*
X803401Y144388D01*
X882161Y223148D01*
X882237Y223243D01*
X882320Y223332D01*
X882349Y223384D01*
X882387Y223430D01*
X882440Y223540D01*
X882501Y223645D01*
X882519Y223702D01*
X882545Y223755D01*
X882573Y223873D01*
X882610Y223990D01*
X882615Y224049D01*
X882628Y224107D01*
X882630Y224228D01*
X882640Y224350D01*
X882632Y224409D01*
X882632Y224468D01*
X882607Y224587D01*
X882590Y224708D01*
X882569Y224763D01*
X882557Y224821D01*
X882506Y224932D01*
X882464Y225046D01*
X882431Y225096D01*
X882406Y225150D01*
X882332Y225247D01*
X882266Y225348D01*
X882223Y225390D01*
X882187Y225437D01*
X882093Y225515D01*
X882006Y225600D01*
X881962Y225626D01*
X881910Y225669D01*
X881704Y225776D01*
X881630Y225819D01*
X879644Y226641D01*
X878673Y227612D01*
X878625Y227651D01*
X878582Y227697D01*
X878484Y227763D01*
X878391Y227837D01*
X878335Y227865D01*
X878283Y227900D01*
X878173Y227944D01*
X878066Y227996D01*
X878005Y228010D01*
X877947Y228033D01*
X877857Y228046D01*
X877715Y228079D01*
X877596Y228080D01*
X877516Y228091D01*
X811584Y228091D01*
X811522Y228084D01*
X811460Y228087D01*
X811343Y228064D01*
X811225Y228051D01*
X811166Y228031D01*
X811104Y228019D01*
X810996Y227972D01*
X810884Y227934D01*
X810830Y227901D01*
X810773Y227876D01*
X810700Y227821D01*
X810576Y227744D01*
X810491Y227661D01*
X810427Y227612D01*
X809456Y226641D01*
X807506Y225833D01*
X805394Y225833D01*
X803444Y226641D01*
X801951Y228134D01*
X801143Y230084D01*
X801143Y232196D01*
X801951Y234146D01*
X803444Y235639D01*
X805394Y236447D01*
X807506Y236447D01*
X809456Y235639D01*
X810427Y234668D01*
X810475Y234629D01*
X810518Y234583D01*
X810616Y234517D01*
X810709Y234443D01*
X810765Y234415D01*
X810817Y234380D01*
X810927Y234336D01*
X811034Y234284D01*
X811095Y234270D01*
X811153Y234247D01*
X811243Y234235D01*
X811385Y234201D01*
X811504Y234200D01*
X811584Y234189D01*
X851253Y234189D01*
X851374Y234202D01*
X851495Y234207D01*
X851553Y234222D01*
X851612Y234229D01*
X851727Y234268D01*
X851845Y234299D01*
X851897Y234327D01*
X851954Y234346D01*
X852057Y234410D01*
X852165Y234467D01*
X852211Y234505D01*
X852261Y234536D01*
X852349Y234621D01*
X852441Y234700D01*
X852477Y234747D01*
X852520Y234789D01*
X852586Y234891D01*
X852659Y234988D01*
X852684Y235042D01*
X852716Y235092D01*
X852759Y235206D01*
X852809Y235317D01*
X852821Y235375D01*
X852842Y235431D01*
X852858Y235552D01*
X852883Y235671D01*
X852882Y235730D01*
X852890Y235789D01*
X852879Y235910D01*
X852877Y236032D01*
X852864Y236082D01*
X852858Y236149D01*
X852788Y236370D01*
X852766Y236453D01*
X851943Y238438D01*
X851943Y240550D01*
X852751Y242500D01*
X854244Y243993D01*
X856194Y244801D01*
X858306Y244801D01*
X860256Y243993D01*
X861227Y243022D01*
X861275Y242983D01*
X861318Y242937D01*
X861416Y242871D01*
X861509Y242797D01*
X861565Y242769D01*
X861617Y242734D01*
X861727Y242690D01*
X861834Y242638D01*
X861895Y242624D01*
X861953Y242601D01*
X862043Y242589D01*
X862185Y242555D01*
X862304Y242554D01*
X862384Y242543D01*
X887373Y242543D01*
X894053Y235863D01*
X894053Y226417D01*
X809978Y142342D01*
X809939Y142294D01*
X809893Y142251D01*
X809827Y142153D01*
X809753Y142060D01*
X809725Y142004D01*
X809690Y141952D01*
X809646Y141842D01*
X809594Y141735D01*
X809580Y141674D01*
X809557Y141616D01*
X809545Y141526D01*
X809511Y141384D01*
X809510Y141265D01*
X809499Y141185D01*
X809499Y134674D01*
X809506Y134612D01*
X809503Y134550D01*
X809526Y134433D01*
X809539Y134315D01*
X809559Y134256D01*
X809571Y134194D01*
X809618Y134086D01*
X809656Y133974D01*
X809689Y133920D01*
X809714Y133863D01*
X809769Y133790D01*
X809846Y133666D01*
X809929Y133581D01*
X809978Y133517D01*
X810949Y132546D01*
X811757Y130596D01*
X811757Y128484D01*
X810949Y126534D01*
X809456Y125041D01*
X807506Y124233D01*
X805394Y124233D01*
G37*
%LPD*%
%LPC*%
G36*
X179890Y254053D02*
X179890Y254053D01*
X175876Y255716D01*
X172803Y258788D01*
X171140Y262803D01*
X171140Y267148D01*
X172803Y271163D01*
X175876Y274235D01*
X178323Y275249D01*
X178331Y275253D01*
X178339Y275256D01*
X178507Y275348D01*
X178678Y275439D01*
X178685Y275445D01*
X178693Y275449D01*
X178839Y275572D01*
X178988Y275696D01*
X178994Y275703D01*
X179001Y275708D01*
X179121Y275859D01*
X179242Y276008D01*
X179246Y276016D01*
X179252Y276023D01*
X179340Y276195D01*
X179429Y276365D01*
X179432Y276373D01*
X179436Y276381D01*
X179488Y276566D01*
X179542Y276751D01*
X179543Y276760D01*
X179545Y276769D01*
X179560Y276960D01*
X179577Y277152D01*
X179576Y277161D01*
X179576Y277170D01*
X179553Y277361D01*
X179532Y277552D01*
X179529Y277561D01*
X179528Y277570D01*
X179467Y277753D01*
X179408Y277936D01*
X179404Y277943D01*
X179401Y277952D01*
X179306Y278120D01*
X179212Y278287D01*
X179206Y278294D01*
X179202Y278302D01*
X179075Y278447D01*
X178950Y278593D01*
X178943Y278598D01*
X178937Y278605D01*
X178785Y278722D01*
X178633Y278841D01*
X178625Y278845D01*
X178618Y278851D01*
X178323Y279002D01*
X175300Y280254D01*
X171942Y283613D01*
X170124Y288001D01*
X170124Y292750D01*
X171942Y297138D01*
X175300Y300497D01*
X176996Y301199D01*
X177003Y301203D01*
X177012Y301206D01*
X177182Y301299D01*
X177350Y301389D01*
X177357Y301395D01*
X177365Y301399D01*
X177514Y301524D01*
X177661Y301645D01*
X177667Y301652D01*
X177673Y301658D01*
X177794Y301809D01*
X177915Y301958D01*
X177919Y301966D01*
X177924Y301973D01*
X178013Y302145D01*
X178102Y302315D01*
X178104Y302323D01*
X178108Y302331D01*
X178160Y302516D01*
X178215Y302701D01*
X178216Y302710D01*
X178218Y302719D01*
X178233Y302909D01*
X178249Y303102D01*
X178248Y303111D01*
X178249Y303120D01*
X178226Y303311D01*
X178204Y303502D01*
X178201Y303511D01*
X178200Y303520D01*
X178141Y303698D01*
X178081Y303886D01*
X178077Y303893D01*
X178074Y303902D01*
X177979Y304068D01*
X177885Y304237D01*
X177879Y304244D01*
X177874Y304252D01*
X177749Y304396D01*
X177623Y304543D01*
X177616Y304548D01*
X177610Y304555D01*
X177458Y304672D01*
X177306Y304791D01*
X177298Y304795D01*
X177291Y304801D01*
X176996Y304952D01*
X175300Y305654D01*
X171942Y309013D01*
X170124Y313401D01*
X170124Y318150D01*
X171942Y322538D01*
X175300Y325897D01*
X176995Y326598D01*
X177110Y326660D01*
X177229Y326714D01*
X177287Y326755D01*
X177350Y326789D01*
X177451Y326872D01*
X177557Y326948D01*
X177605Y327000D01*
X177660Y327045D01*
X177742Y327147D01*
X177832Y327242D01*
X177869Y327303D01*
X177914Y327358D01*
X177975Y327474D01*
X178043Y327585D01*
X178068Y327651D01*
X178101Y327714D01*
X178137Y327840D01*
X178183Y327962D01*
X178194Y328033D01*
X178214Y328101D01*
X178225Y328231D01*
X178245Y328360D01*
X178242Y328431D01*
X178248Y328502D01*
X178234Y328631D01*
X178228Y328762D01*
X178211Y328831D01*
X178203Y328902D01*
X178163Y329026D01*
X178132Y329153D01*
X178102Y329218D01*
X178080Y329285D01*
X178016Y329399D01*
X177961Y329518D01*
X177918Y329575D01*
X177884Y329637D01*
X177799Y329736D01*
X177721Y329841D01*
X177668Y329889D01*
X177622Y329942D01*
X177519Y330023D01*
X177422Y330111D01*
X177352Y330154D01*
X177305Y330191D01*
X177237Y330225D01*
X177140Y330285D01*
X175806Y330964D01*
X174285Y332069D01*
X172957Y333398D01*
X171852Y334918D01*
X170999Y336593D01*
X170418Y338380D01*
X170378Y338636D01*
X181555Y338636D01*
X181573Y338638D01*
X181590Y338636D01*
X181773Y338658D01*
X181955Y338676D01*
X181973Y338681D01*
X181990Y338683D01*
X182068Y338709D01*
X182206Y338669D01*
X182223Y338668D01*
X182241Y338663D01*
X182571Y338636D01*
X193748Y338636D01*
X193708Y338380D01*
X193127Y336593D01*
X192274Y334918D01*
X191169Y333398D01*
X189841Y332069D01*
X188320Y330964D01*
X186987Y330285D01*
X186876Y330214D01*
X186762Y330152D01*
X186707Y330106D01*
X186648Y330068D01*
X186554Y329977D01*
X186454Y329892D01*
X186409Y329837D01*
X186358Y329788D01*
X186284Y329680D01*
X186203Y329578D01*
X186170Y329514D01*
X186130Y329456D01*
X186078Y329336D01*
X186019Y329219D01*
X185999Y329151D01*
X185971Y329086D01*
X185945Y328958D01*
X185909Y328832D01*
X185904Y328761D01*
X185889Y328692D01*
X185888Y328561D01*
X185878Y328431D01*
X185887Y328360D01*
X185886Y328289D01*
X185911Y328161D01*
X185927Y328031D01*
X185949Y327964D01*
X185962Y327894D01*
X186012Y327773D01*
X186053Y327649D01*
X186088Y327587D01*
X186115Y327521D01*
X186188Y327413D01*
X186253Y327299D01*
X186299Y327245D01*
X186339Y327186D01*
X186431Y327094D01*
X186517Y326995D01*
X186573Y326952D01*
X186624Y326902D01*
X186733Y326830D01*
X186836Y326750D01*
X186909Y326713D01*
X186959Y326680D01*
X187030Y326651D01*
X187131Y326598D01*
X188826Y325897D01*
X192184Y322538D01*
X194002Y318150D01*
X194002Y313401D01*
X192184Y309013D01*
X188826Y305654D01*
X187131Y304952D01*
X187123Y304948D01*
X187114Y304945D01*
X186946Y304853D01*
X186776Y304762D01*
X186769Y304756D01*
X186761Y304752D01*
X186614Y304629D01*
X186465Y304506D01*
X186460Y304499D01*
X186453Y304493D01*
X186333Y304343D01*
X186212Y304193D01*
X186207Y304185D01*
X186202Y304178D01*
X186114Y304007D01*
X186024Y303836D01*
X186022Y303828D01*
X186018Y303820D01*
X185966Y303636D01*
X185911Y303450D01*
X185911Y303441D01*
X185908Y303432D01*
X185893Y303242D01*
X185877Y303049D01*
X185878Y303040D01*
X185877Y303031D01*
X185901Y302837D01*
X185922Y302649D01*
X185925Y302640D01*
X185926Y302631D01*
X185986Y302448D01*
X186045Y302265D01*
X186049Y302258D01*
X186052Y302249D01*
X186148Y302080D01*
X186241Y301914D01*
X186247Y301907D01*
X186252Y301899D01*
X186378Y301754D01*
X186503Y301608D01*
X186510Y301603D01*
X186516Y301596D01*
X186669Y301478D01*
X186820Y301360D01*
X186828Y301356D01*
X186835Y301350D01*
X187130Y301199D01*
X188826Y300497D01*
X192184Y297138D01*
X194002Y292750D01*
X194002Y288001D01*
X192184Y283613D01*
X188826Y280254D01*
X185803Y279002D01*
X185795Y278998D01*
X185787Y278995D01*
X185618Y278903D01*
X185448Y278812D01*
X185441Y278806D01*
X185433Y278802D01*
X185286Y278678D01*
X185138Y278556D01*
X185132Y278549D01*
X185125Y278543D01*
X185006Y278393D01*
X184884Y278243D01*
X184880Y278235D01*
X184874Y278228D01*
X184787Y278059D01*
X184697Y277886D01*
X184694Y277878D01*
X184690Y277870D01*
X184639Y277687D01*
X184584Y277500D01*
X184583Y277491D01*
X184581Y277483D01*
X184566Y277292D01*
X184549Y277099D01*
X184550Y277090D01*
X184550Y277081D01*
X184573Y276890D01*
X184594Y276699D01*
X184597Y276690D01*
X184598Y276682D01*
X184658Y276501D01*
X184718Y276316D01*
X184722Y276308D01*
X184725Y276299D01*
X184820Y276133D01*
X184914Y275964D01*
X184920Y275957D01*
X184924Y275950D01*
X185052Y275803D01*
X185176Y275658D01*
X185183Y275653D01*
X185189Y275646D01*
X185341Y275529D01*
X185493Y275410D01*
X185501Y275406D01*
X185508Y275401D01*
X185803Y275249D01*
X188250Y274235D01*
X191323Y271163D01*
X192986Y267148D01*
X192986Y262803D01*
X191323Y258788D01*
X188250Y255716D01*
X184236Y254053D01*
X179890Y254053D01*
G37*
%LPD*%
%LPC*%
G36*
X203936Y8002D02*
X203936Y8002D01*
X199548Y9820D01*
X196189Y13178D01*
X194937Y16201D01*
X194933Y16209D01*
X194930Y16217D01*
X194838Y16386D01*
X194747Y16556D01*
X194741Y16563D01*
X194737Y16571D01*
X194613Y16718D01*
X194490Y16866D01*
X194483Y16872D01*
X194478Y16879D01*
X194327Y16998D01*
X194178Y17120D01*
X194170Y17124D01*
X194163Y17130D01*
X193993Y17217D01*
X193821Y17307D01*
X193813Y17310D01*
X193805Y17314D01*
X193622Y17365D01*
X193435Y17420D01*
X193426Y17421D01*
X193417Y17423D01*
X193226Y17438D01*
X193034Y17455D01*
X193025Y17454D01*
X193016Y17454D01*
X192825Y17431D01*
X192634Y17410D01*
X192625Y17407D01*
X192616Y17406D01*
X192436Y17346D01*
X192250Y17286D01*
X192242Y17282D01*
X192234Y17279D01*
X192068Y17184D01*
X191899Y17090D01*
X191892Y17084D01*
X191884Y17080D01*
X191738Y16952D01*
X191593Y16828D01*
X191588Y16821D01*
X191581Y16815D01*
X191464Y16663D01*
X191345Y16511D01*
X191341Y16503D01*
X191335Y16496D01*
X191184Y16201D01*
X190170Y13754D01*
X187098Y10681D01*
X184212Y9486D01*
X183083Y9018D01*
X178738Y9018D01*
X174723Y10681D01*
X171650Y13754D01*
X169988Y17768D01*
X169988Y22114D01*
X171650Y26128D01*
X174723Y29201D01*
X178738Y30864D01*
X183083Y30864D01*
X187098Y29201D01*
X190170Y26128D01*
X191184Y23681D01*
X191188Y23673D01*
X191191Y23665D01*
X191283Y23497D01*
X191374Y23326D01*
X191380Y23319D01*
X191384Y23311D01*
X191507Y23165D01*
X191630Y23016D01*
X191637Y23010D01*
X191643Y23003D01*
X191793Y22883D01*
X191943Y22762D01*
X191951Y22758D01*
X191958Y22752D01*
X192130Y22664D01*
X192300Y22575D01*
X192308Y22572D01*
X192316Y22568D01*
X192501Y22516D01*
X192686Y22462D01*
X192695Y22461D01*
X192703Y22459D01*
X192894Y22444D01*
X193087Y22427D01*
X193096Y22428D01*
X193105Y22428D01*
X193296Y22451D01*
X193487Y22472D01*
X193496Y22475D01*
X193505Y22476D01*
X193688Y22537D01*
X193870Y22596D01*
X193878Y22600D01*
X193887Y22603D01*
X194055Y22698D01*
X194222Y22792D01*
X194229Y22798D01*
X194236Y22802D01*
X194382Y22929D01*
X194528Y23054D01*
X194533Y23061D01*
X194540Y23067D01*
X194657Y23219D01*
X194776Y23371D01*
X194780Y23379D01*
X194785Y23386D01*
X194937Y23681D01*
X196189Y26704D01*
X199548Y30062D01*
X203936Y31880D01*
X208685Y31880D01*
X213073Y30062D01*
X216431Y26704D01*
X217134Y25008D01*
X217138Y25001D01*
X217141Y24992D01*
X217232Y24824D01*
X217324Y24654D01*
X217330Y24647D01*
X217334Y24639D01*
X217457Y24492D01*
X217580Y24343D01*
X217587Y24338D01*
X217593Y24331D01*
X217743Y24211D01*
X217893Y24089D01*
X217901Y24085D01*
X217908Y24080D01*
X218079Y23992D01*
X218249Y23902D01*
X218258Y23900D01*
X218266Y23896D01*
X218450Y23844D01*
X218636Y23789D01*
X218645Y23788D01*
X218653Y23786D01*
X218844Y23771D01*
X219037Y23755D01*
X219046Y23756D01*
X219055Y23755D01*
X219246Y23778D01*
X219437Y23800D01*
X219445Y23802D01*
X219454Y23804D01*
X219638Y23864D01*
X219820Y23923D01*
X219828Y23927D01*
X219837Y23930D01*
X220004Y24026D01*
X220172Y24119D01*
X220179Y24125D01*
X220186Y24130D01*
X220331Y24256D01*
X220478Y24381D01*
X220483Y24388D01*
X220490Y24394D01*
X220608Y24547D01*
X220726Y24698D01*
X220730Y24706D01*
X220735Y24713D01*
X220887Y25008D01*
X221589Y26704D01*
X224948Y30062D01*
X229336Y31880D01*
X234085Y31880D01*
X238473Y30062D01*
X241831Y26704D01*
X242533Y25009D01*
X242595Y24894D01*
X242649Y24775D01*
X242690Y24717D01*
X242723Y24654D01*
X242807Y24553D01*
X242883Y24447D01*
X242935Y24399D01*
X242980Y24344D01*
X243082Y24262D01*
X243177Y24172D01*
X243237Y24135D01*
X243293Y24090D01*
X243408Y24029D01*
X243520Y23961D01*
X243586Y23936D01*
X243649Y23903D01*
X243774Y23867D01*
X243897Y23821D01*
X243967Y23810D01*
X244035Y23790D01*
X244166Y23779D01*
X244295Y23759D01*
X244366Y23762D01*
X244437Y23756D01*
X244566Y23770D01*
X244697Y23776D01*
X244766Y23793D01*
X244837Y23801D01*
X244961Y23841D01*
X245088Y23872D01*
X245152Y23902D01*
X245220Y23924D01*
X245334Y23988D01*
X245452Y24043D01*
X245510Y24086D01*
X245571Y24120D01*
X245671Y24205D01*
X245776Y24283D01*
X245823Y24336D01*
X245877Y24382D01*
X245958Y24485D01*
X246046Y24582D01*
X246089Y24652D01*
X246126Y24699D01*
X246160Y24767D01*
X246220Y24864D01*
X246899Y26198D01*
X248004Y27719D01*
X249333Y29047D01*
X250853Y30152D01*
X252527Y31005D01*
X254315Y31586D01*
X254571Y31626D01*
X254571Y20449D01*
X254573Y20431D01*
X254571Y20414D01*
X254593Y20231D01*
X254611Y20049D01*
X254616Y20031D01*
X254618Y20014D01*
X254644Y19936D01*
X254604Y19798D01*
X254603Y19781D01*
X254598Y19763D01*
X254571Y19433D01*
X254571Y8256D01*
X254315Y8296D01*
X252527Y8877D01*
X250853Y9730D01*
X249333Y10835D01*
X248004Y12163D01*
X246899Y13684D01*
X246220Y15017D01*
X246149Y15128D01*
X246086Y15242D01*
X246041Y15297D01*
X246002Y15356D01*
X245911Y15450D01*
X245827Y15550D01*
X245772Y15595D01*
X245722Y15646D01*
X245615Y15720D01*
X245512Y15801D01*
X245449Y15834D01*
X245391Y15874D01*
X245271Y15926D01*
X245154Y15985D01*
X245086Y16005D01*
X245021Y16033D01*
X244893Y16059D01*
X244767Y16095D01*
X244696Y16100D01*
X244627Y16115D01*
X244496Y16116D01*
X244365Y16126D01*
X244295Y16117D01*
X244224Y16118D01*
X244096Y16093D01*
X243966Y16077D01*
X243898Y16055D01*
X243829Y16042D01*
X243708Y15992D01*
X243584Y15951D01*
X243522Y15916D01*
X243456Y15889D01*
X243347Y15816D01*
X243234Y15751D01*
X243180Y15705D01*
X243121Y15665D01*
X243029Y15573D01*
X242930Y15487D01*
X242887Y15431D01*
X242837Y15380D01*
X242765Y15271D01*
X242685Y15168D01*
X242647Y15095D01*
X242614Y15045D01*
X242586Y14974D01*
X242533Y14873D01*
X241831Y13178D01*
X238473Y9820D01*
X234085Y8002D01*
X229336Y8002D01*
X224948Y9820D01*
X221589Y13178D01*
X220887Y14874D01*
X220883Y14881D01*
X220880Y14890D01*
X220787Y15060D01*
X220697Y15228D01*
X220691Y15235D01*
X220687Y15243D01*
X220562Y15391D01*
X220440Y15539D01*
X220433Y15544D01*
X220428Y15551D01*
X220276Y15672D01*
X220128Y15792D01*
X220120Y15797D01*
X220113Y15802D01*
X219941Y15891D01*
X219771Y15980D01*
X219763Y15982D01*
X219755Y15986D01*
X219570Y16038D01*
X219385Y16093D01*
X219376Y16093D01*
X219367Y16096D01*
X219176Y16111D01*
X218984Y16127D01*
X218975Y16126D01*
X218966Y16127D01*
X218775Y16104D01*
X218584Y16082D01*
X218575Y16079D01*
X218566Y16078D01*
X218385Y16018D01*
X218200Y15959D01*
X218192Y15955D01*
X218184Y15952D01*
X218018Y15857D01*
X217849Y15763D01*
X217842Y15757D01*
X217834Y15752D01*
X217690Y15627D01*
X217543Y15501D01*
X217537Y15494D01*
X217531Y15488D01*
X217414Y15336D01*
X217295Y15184D01*
X217291Y15176D01*
X217285Y15169D01*
X217134Y14873D01*
X216431Y13178D01*
X213073Y9820D01*
X208685Y8002D01*
X203936Y8002D01*
G37*
%LPD*%
%LPC*%
G36*
X303466Y334534D02*
X303466Y334534D01*
X303448Y334541D01*
X303433Y334551D01*
X303281Y334607D01*
X303130Y334667D01*
X303113Y334669D01*
X303094Y334676D01*
X302736Y334725D01*
X302715Y334723D01*
X302698Y334725D01*
X291915Y334725D01*
X291955Y334981D01*
X292536Y336769D01*
X293389Y338443D01*
X294494Y339963D01*
X295823Y341292D01*
X297343Y342397D01*
X299017Y343250D01*
X299277Y343334D01*
X299409Y343394D01*
X299544Y343448D01*
X299573Y343468D01*
X299606Y343483D01*
X299722Y343570D01*
X299842Y343653D01*
X299866Y343679D01*
X299895Y343700D01*
X299989Y343811D01*
X300087Y343918D01*
X300105Y343949D01*
X300128Y343976D01*
X300196Y344105D01*
X300269Y344230D01*
X300280Y344264D01*
X300296Y344296D01*
X300334Y344437D01*
X300377Y344575D01*
X300380Y344611D01*
X300390Y344645D01*
X300395Y344790D01*
X300408Y344935D01*
X300403Y344971D01*
X300404Y345006D01*
X300378Y345149D01*
X300358Y345293D01*
X300346Y345327D01*
X300339Y345362D01*
X300282Y345495D01*
X300231Y345632D01*
X300212Y345661D01*
X300198Y345694D01*
X300113Y345812D01*
X300033Y345934D01*
X300008Y345959D01*
X299987Y345988D01*
X299878Y346085D01*
X299774Y346186D01*
X299747Y346201D01*
X299717Y346228D01*
X299401Y346403D01*
X299399Y346403D01*
X299397Y346404D01*
X296837Y347465D01*
X293479Y350823D01*
X291662Y355211D01*
X291662Y359960D01*
X293479Y364348D01*
X296837Y367707D01*
X299411Y368773D01*
X299482Y368812D01*
X299558Y368842D01*
X299640Y368899D01*
X299728Y368947D01*
X299788Y369001D01*
X299855Y369047D01*
X299923Y369120D01*
X299998Y369187D01*
X300046Y369252D01*
X300101Y369312D01*
X300151Y369399D01*
X300210Y369480D01*
X300242Y369554D01*
X300283Y369625D01*
X300313Y369720D01*
X300352Y369812D01*
X300367Y369892D01*
X300391Y369969D01*
X300399Y370069D01*
X300418Y370167D01*
X300414Y370248D01*
X300421Y370330D01*
X300408Y370429D01*
X300404Y370528D01*
X300383Y370607D01*
X300372Y370687D01*
X300337Y370781D01*
X300311Y370878D01*
X300274Y370950D01*
X300245Y371026D01*
X300190Y371109D01*
X300144Y371198D01*
X300092Y371260D01*
X300047Y371328D01*
X299975Y371398D01*
X299911Y371474D01*
X299846Y371523D01*
X299788Y371580D01*
X299717Y371621D01*
X299623Y371692D01*
X299490Y371753D01*
X299411Y371799D01*
X296837Y372865D01*
X293479Y376223D01*
X291662Y380611D01*
X291662Y385360D01*
X293479Y389748D01*
X296837Y393107D01*
X300738Y394723D01*
X300810Y394762D01*
X300885Y394792D01*
X300967Y394849D01*
X301055Y394897D01*
X301116Y394951D01*
X301183Y394997D01*
X301251Y395070D01*
X301326Y395136D01*
X301373Y395202D01*
X301429Y395262D01*
X301479Y395349D01*
X301537Y395429D01*
X301569Y395504D01*
X301610Y395575D01*
X301640Y395670D01*
X301679Y395762D01*
X301694Y395842D01*
X301718Y395919D01*
X301727Y396019D01*
X301745Y396117D01*
X301742Y396198D01*
X301749Y396279D01*
X301735Y396378D01*
X301731Y396478D01*
X301710Y396557D01*
X301699Y396637D01*
X301664Y396731D01*
X301639Y396828D01*
X301601Y396900D01*
X301572Y396976D01*
X301518Y397060D01*
X301472Y397148D01*
X301419Y397210D01*
X301375Y397278D01*
X301303Y397348D01*
X301238Y397424D01*
X301174Y397473D01*
X301115Y397530D01*
X301045Y397571D01*
X300950Y397642D01*
X300817Y397703D01*
X300738Y397748D01*
X297413Y399126D01*
X294340Y402198D01*
X292678Y406213D01*
X292678Y410558D01*
X294340Y414573D01*
X297413Y417645D01*
X301428Y419308D01*
X305773Y419308D01*
X309788Y417645D01*
X312860Y414573D01*
X314523Y410558D01*
X314523Y406213D01*
X312860Y402198D01*
X309788Y399126D01*
X306462Y397748D01*
X306391Y397709D01*
X306315Y397679D01*
X306233Y397622D01*
X306145Y397574D01*
X306085Y397520D01*
X306018Y397474D01*
X305950Y397401D01*
X305875Y397335D01*
X305827Y397269D01*
X305772Y397209D01*
X305722Y397123D01*
X305663Y397042D01*
X305631Y396967D01*
X305591Y396897D01*
X305560Y396801D01*
X305521Y396709D01*
X305506Y396629D01*
X305482Y396552D01*
X305474Y396452D01*
X305455Y396354D01*
X305459Y396273D01*
X305452Y396192D01*
X305465Y396093D01*
X305469Y395993D01*
X305490Y395914D01*
X305501Y395834D01*
X305536Y395740D01*
X305562Y395644D01*
X305600Y395571D01*
X305628Y395495D01*
X305683Y395412D01*
X305729Y395323D01*
X305781Y395261D01*
X305826Y395193D01*
X305898Y395123D01*
X305962Y395047D01*
X306027Y394998D01*
X306085Y394941D01*
X306156Y394901D01*
X306250Y394829D01*
X306383Y394769D01*
X306462Y394723D01*
X310363Y393107D01*
X313721Y389748D01*
X315539Y385360D01*
X315539Y380611D01*
X313721Y376223D01*
X310363Y372865D01*
X307790Y371799D01*
X307718Y371759D01*
X307643Y371729D01*
X307561Y371672D01*
X307473Y371624D01*
X307412Y371570D01*
X307345Y371524D01*
X307277Y371451D01*
X307202Y371385D01*
X307155Y371319D01*
X307099Y371259D01*
X307049Y371173D01*
X306991Y371092D01*
X306959Y371017D01*
X306918Y370947D01*
X306888Y370851D01*
X306849Y370759D01*
X306834Y370680D01*
X306809Y370602D01*
X306801Y370502D01*
X306783Y370404D01*
X306786Y370323D01*
X306779Y370242D01*
X306793Y370143D01*
X306797Y370043D01*
X306818Y369964D01*
X306829Y369884D01*
X306864Y369790D01*
X306889Y369694D01*
X306927Y369622D01*
X306955Y369545D01*
X307010Y369462D01*
X307056Y369373D01*
X307109Y369311D01*
X307153Y369243D01*
X307225Y369173D01*
X307290Y369097D01*
X307354Y369048D01*
X307413Y368991D01*
X307483Y368951D01*
X307578Y368879D01*
X307710Y368819D01*
X307790Y368773D01*
X310363Y367707D01*
X313721Y364348D01*
X315539Y359960D01*
X315539Y355211D01*
X313721Y350823D01*
X310363Y347465D01*
X307803Y346404D01*
X307676Y346334D01*
X307546Y346270D01*
X307518Y346247D01*
X307487Y346230D01*
X307378Y346134D01*
X307265Y346042D01*
X307243Y346014D01*
X307216Y345990D01*
X307131Y345873D01*
X307041Y345759D01*
X307025Y345726D01*
X307004Y345697D01*
X306947Y345564D01*
X306884Y345433D01*
X306876Y345398D01*
X306862Y345365D01*
X306836Y345222D01*
X306803Y345081D01*
X306803Y345045D01*
X306797Y345010D01*
X306802Y344864D01*
X306801Y344719D01*
X306809Y344684D01*
X306810Y344649D01*
X306848Y344508D01*
X306879Y344366D01*
X306894Y344334D01*
X306903Y344299D01*
X306970Y344171D01*
X307032Y344039D01*
X307054Y344010D01*
X307070Y343979D01*
X307164Y343868D01*
X307253Y343753D01*
X307280Y343730D01*
X307303Y343703D01*
X307419Y343615D01*
X307531Y343522D01*
X307560Y343509D01*
X307592Y343485D01*
X307920Y343335D01*
X307922Y343335D01*
X307924Y343334D01*
X308183Y343250D01*
X309857Y342397D01*
X311378Y341292D01*
X312706Y339963D01*
X313811Y338443D01*
X314664Y336769D01*
X315245Y334981D01*
X315286Y334725D01*
X304502Y334725D01*
X304341Y334707D01*
X304180Y334693D01*
X304162Y334687D01*
X304143Y334685D01*
X303990Y334632D01*
X303835Y334583D01*
X303819Y334574D01*
X303801Y334567D01*
X303663Y334482D01*
X303598Y334444D01*
X303466Y334534D01*
G37*
%LPD*%
%LPC*%
G36*
X635687Y11034D02*
X635687Y11034D01*
X631299Y12851D01*
X627941Y16210D01*
X626325Y20111D01*
X626286Y20182D01*
X626256Y20257D01*
X626199Y20340D01*
X626151Y20427D01*
X626097Y20488D01*
X626051Y20555D01*
X625978Y20623D01*
X625911Y20698D01*
X625846Y20745D01*
X625786Y20801D01*
X625699Y20851D01*
X625618Y20909D01*
X625544Y20941D01*
X625473Y20982D01*
X625378Y21012D01*
X625286Y21052D01*
X625206Y21066D01*
X625129Y21091D01*
X625029Y21099D01*
X624931Y21117D01*
X624850Y21114D01*
X624768Y21121D01*
X624669Y21107D01*
X624570Y21103D01*
X624491Y21083D01*
X624410Y21071D01*
X624317Y21036D01*
X624220Y21011D01*
X624148Y20973D01*
X624072Y20945D01*
X623988Y20890D01*
X623900Y20844D01*
X623838Y20791D01*
X623770Y20747D01*
X623700Y20675D01*
X623624Y20611D01*
X623575Y20546D01*
X623518Y20487D01*
X623477Y20417D01*
X623406Y20322D01*
X623345Y20190D01*
X623299Y20111D01*
X621922Y16785D01*
X618849Y13713D01*
X614835Y12050D01*
X610490Y12050D01*
X606475Y13713D01*
X603402Y16785D01*
X601739Y20800D01*
X601739Y25145D01*
X603402Y29160D01*
X606475Y32232D01*
X610490Y33895D01*
X614835Y33895D01*
X618849Y32232D01*
X621922Y29160D01*
X623299Y25834D01*
X623339Y25763D01*
X623369Y25688D01*
X623426Y25605D01*
X623474Y25518D01*
X623528Y25457D01*
X623574Y25390D01*
X623647Y25322D01*
X623713Y25247D01*
X623779Y25200D01*
X623839Y25144D01*
X623925Y25094D01*
X624006Y25036D01*
X624081Y25004D01*
X624151Y24963D01*
X624247Y24933D01*
X624339Y24893D01*
X624418Y24879D01*
X624496Y24854D01*
X624596Y24846D01*
X624694Y24828D01*
X624775Y24831D01*
X624856Y24824D01*
X624955Y24838D01*
X625055Y24842D01*
X625134Y24862D01*
X625214Y24874D01*
X625307Y24908D01*
X625404Y24934D01*
X625477Y24972D01*
X625553Y25000D01*
X625636Y25055D01*
X625725Y25101D01*
X625787Y25154D01*
X625855Y25198D01*
X625924Y25270D01*
X626001Y25334D01*
X626050Y25399D01*
X626107Y25458D01*
X626147Y25528D01*
X626219Y25623D01*
X626279Y25755D01*
X626325Y25834D01*
X627941Y29735D01*
X631299Y33094D01*
X635687Y34911D01*
X640437Y34911D01*
X644825Y33094D01*
X648183Y29735D01*
X649249Y27162D01*
X649289Y27090D01*
X649319Y27015D01*
X649375Y26933D01*
X649424Y26845D01*
X649477Y26784D01*
X649524Y26717D01*
X649597Y26649D01*
X649663Y26575D01*
X649729Y26527D01*
X649789Y26472D01*
X649875Y26421D01*
X649956Y26363D01*
X650031Y26331D01*
X650101Y26290D01*
X650197Y26260D01*
X650288Y26221D01*
X650368Y26206D01*
X650446Y26182D01*
X650546Y26173D01*
X650644Y26155D01*
X650725Y26158D01*
X650806Y26151D01*
X650905Y26165D01*
X651005Y26169D01*
X651084Y26190D01*
X651164Y26201D01*
X651258Y26236D01*
X651354Y26262D01*
X651426Y26299D01*
X651502Y26328D01*
X651586Y26383D01*
X651675Y26429D01*
X651737Y26481D01*
X651805Y26526D01*
X651875Y26598D01*
X651951Y26662D01*
X652000Y26727D01*
X652056Y26785D01*
X652097Y26855D01*
X652169Y26950D01*
X652229Y27083D01*
X652275Y27162D01*
X653341Y29735D01*
X656699Y33094D01*
X661087Y34911D01*
X665837Y34911D01*
X670225Y33094D01*
X673583Y29735D01*
X674644Y27175D01*
X674714Y27048D01*
X674778Y26918D01*
X674801Y26890D01*
X674818Y26859D01*
X674914Y26750D01*
X675006Y26637D01*
X675034Y26615D01*
X675057Y26588D01*
X675175Y26503D01*
X675289Y26413D01*
X675321Y26398D01*
X675350Y26377D01*
X675484Y26319D01*
X675615Y26257D01*
X675650Y26249D01*
X675683Y26235D01*
X675825Y26208D01*
X675967Y26176D01*
X676003Y26175D01*
X676038Y26169D01*
X676183Y26174D01*
X676329Y26174D01*
X676364Y26181D01*
X676399Y26183D01*
X676540Y26220D01*
X676682Y26251D01*
X676714Y26266D01*
X676749Y26275D01*
X676878Y26343D01*
X677009Y26404D01*
X677037Y26426D01*
X677069Y26442D01*
X677180Y26536D01*
X677295Y26625D01*
X677318Y26653D01*
X677345Y26676D01*
X677433Y26791D01*
X677525Y26903D01*
X677539Y26932D01*
X677563Y26964D01*
X677713Y27293D01*
X677713Y27295D01*
X677714Y27296D01*
X677798Y27555D01*
X678651Y29230D01*
X679756Y30750D01*
X681084Y32079D01*
X682605Y33183D01*
X684279Y34036D01*
X686067Y34617D01*
X686323Y34658D01*
X686323Y23874D01*
X686341Y23714D01*
X686355Y23552D01*
X686361Y23534D01*
X686363Y23515D01*
X686416Y23361D01*
X686465Y23207D01*
X686474Y23191D01*
X686480Y23174D01*
X686566Y23035D01*
X686604Y22970D01*
X686514Y22838D01*
X686507Y22821D01*
X686497Y22805D01*
X686441Y22653D01*
X686381Y22502D01*
X686379Y22486D01*
X686371Y22466D01*
X686323Y22108D01*
X686325Y22087D01*
X686323Y22071D01*
X686323Y11287D01*
X686067Y11328D01*
X684279Y11909D01*
X682605Y12762D01*
X681084Y13866D01*
X679756Y15195D01*
X678651Y16715D01*
X677798Y18390D01*
X677714Y18649D01*
X677654Y18781D01*
X677600Y18916D01*
X677580Y18946D01*
X677565Y18978D01*
X677478Y19094D01*
X677395Y19214D01*
X677369Y19238D01*
X677348Y19267D01*
X677237Y19361D01*
X677130Y19460D01*
X677099Y19478D01*
X677072Y19501D01*
X676944Y19568D01*
X676818Y19641D01*
X676783Y19652D01*
X676752Y19668D01*
X676612Y19706D01*
X676473Y19750D01*
X676437Y19753D01*
X676403Y19762D01*
X676258Y19768D01*
X676113Y19780D01*
X676077Y19775D01*
X676042Y19776D01*
X675898Y19750D01*
X675755Y19730D01*
X675721Y19718D01*
X675686Y19711D01*
X675552Y19655D01*
X675416Y19604D01*
X675386Y19584D01*
X675354Y19570D01*
X675236Y19486D01*
X675114Y19406D01*
X675089Y19380D01*
X675060Y19359D01*
X674964Y19251D01*
X674862Y19146D01*
X674846Y19119D01*
X674820Y19089D01*
X674645Y18773D01*
X674644Y18771D01*
X674644Y18770D01*
X673583Y16210D01*
X670225Y12851D01*
X665837Y11034D01*
X661087Y11034D01*
X656699Y12851D01*
X653341Y16210D01*
X652275Y18783D01*
X652236Y18854D01*
X652206Y18930D01*
X652149Y19012D01*
X652101Y19100D01*
X652047Y19161D01*
X652001Y19228D01*
X651928Y19296D01*
X651861Y19370D01*
X651795Y19418D01*
X651736Y19473D01*
X651649Y19524D01*
X651568Y19582D01*
X651494Y19614D01*
X651423Y19655D01*
X651328Y19685D01*
X651236Y19724D01*
X651156Y19739D01*
X651078Y19763D01*
X650979Y19772D01*
X650881Y19790D01*
X650800Y19787D01*
X650718Y19794D01*
X650619Y19780D01*
X650520Y19776D01*
X650441Y19755D01*
X650360Y19744D01*
X650267Y19709D01*
X650170Y19683D01*
X650098Y19646D01*
X650022Y19617D01*
X649938Y19563D01*
X649850Y19516D01*
X649788Y19464D01*
X649720Y19419D01*
X649650Y19348D01*
X649574Y19283D01*
X649525Y19218D01*
X649468Y19160D01*
X649427Y19090D01*
X649356Y18995D01*
X649295Y18862D01*
X649249Y18783D01*
X648183Y16210D01*
X644825Y12851D01*
X640437Y11034D01*
X635687Y11034D01*
G37*
%LPD*%
%LPC*%
G36*
X906994Y35333D02*
X906994Y35333D01*
X905044Y36141D01*
X903551Y37634D01*
X902743Y39584D01*
X902743Y41696D01*
X903551Y43646D01*
X904522Y44617D01*
X904561Y44665D01*
X904607Y44708D01*
X904673Y44806D01*
X904747Y44899D01*
X904775Y44955D01*
X904810Y45007D01*
X904854Y45117D01*
X904906Y45224D01*
X904920Y45285D01*
X904943Y45343D01*
X904956Y45433D01*
X904989Y45575D01*
X904990Y45694D01*
X905001Y45774D01*
X905001Y128485D01*
X904994Y128547D01*
X904997Y128609D01*
X904974Y128726D01*
X904961Y128844D01*
X904941Y128903D01*
X904929Y128965D01*
X904882Y129073D01*
X904844Y129185D01*
X904811Y129239D01*
X904786Y129296D01*
X904731Y129369D01*
X904654Y129493D01*
X904571Y129578D01*
X904522Y129642D01*
X896647Y137517D01*
X896647Y173249D01*
X953064Y229665D01*
X953103Y229714D01*
X953149Y229757D01*
X953215Y229855D01*
X953289Y229947D01*
X953317Y230004D01*
X953352Y230055D01*
X953396Y230166D01*
X953448Y230272D01*
X953462Y230333D01*
X953485Y230391D01*
X953498Y230482D01*
X953531Y230624D01*
X953532Y230742D01*
X953543Y230823D01*
X953543Y232196D01*
X954351Y234146D01*
X955844Y235639D01*
X957794Y236447D01*
X959906Y236447D01*
X961856Y235639D01*
X963349Y234146D01*
X964157Y232196D01*
X964157Y230084D01*
X963349Y228134D01*
X961856Y226641D01*
X959906Y225833D01*
X958533Y225833D01*
X958471Y225826D01*
X958408Y225829D01*
X958292Y225806D01*
X958174Y225793D01*
X958115Y225773D01*
X958053Y225761D01*
X957944Y225714D01*
X957832Y225676D01*
X957779Y225643D01*
X957721Y225618D01*
X957649Y225563D01*
X957525Y225486D01*
X957440Y225403D01*
X957375Y225354D01*
X903224Y171203D01*
X903185Y171154D01*
X903139Y171111D01*
X903073Y171013D01*
X902999Y170921D01*
X902971Y170864D01*
X902936Y170813D01*
X902892Y170702D01*
X902840Y170596D01*
X902826Y170535D01*
X902803Y170477D01*
X902791Y170386D01*
X902757Y170244D01*
X902756Y170125D01*
X902745Y170045D01*
X902745Y140721D01*
X902752Y140659D01*
X902749Y140596D01*
X902772Y140479D01*
X902785Y140362D01*
X902805Y140302D01*
X902817Y140241D01*
X902864Y140132D01*
X902902Y140020D01*
X902935Y139966D01*
X902960Y139909D01*
X903015Y139837D01*
X903092Y139712D01*
X903175Y139627D01*
X903224Y139563D01*
X911099Y131688D01*
X911099Y45774D01*
X911106Y45712D01*
X911103Y45650D01*
X911126Y45533D01*
X911139Y45415D01*
X911159Y45356D01*
X911171Y45294D01*
X911218Y45186D01*
X911256Y45074D01*
X911289Y45020D01*
X911314Y44963D01*
X911369Y44890D01*
X911446Y44766D01*
X911529Y44681D01*
X911578Y44617D01*
X912549Y43646D01*
X913357Y41696D01*
X913357Y39584D01*
X912549Y37634D01*
X911056Y36141D01*
X909106Y35333D01*
X906994Y35333D01*
G37*
%LPD*%
%LPC*%
G36*
X212684Y546529D02*
X212684Y546529D01*
X208296Y548347D01*
X204937Y551705D01*
X203685Y554728D01*
X203681Y554736D01*
X203678Y554745D01*
X203586Y554913D01*
X203495Y555083D01*
X203489Y555090D01*
X203485Y555098D01*
X203361Y555245D01*
X203239Y555393D01*
X203232Y555399D01*
X203226Y555406D01*
X203076Y555526D01*
X202926Y555647D01*
X202918Y555651D01*
X202911Y555657D01*
X202742Y555744D01*
X202570Y555834D01*
X202561Y555837D01*
X202553Y555841D01*
X202370Y555892D01*
X202183Y555947D01*
X202174Y555948D01*
X202166Y555950D01*
X201975Y555965D01*
X201782Y555982D01*
X201773Y555981D01*
X201764Y555982D01*
X201573Y555958D01*
X201382Y555937D01*
X201373Y555934D01*
X201365Y555933D01*
X201184Y555873D01*
X200999Y555814D01*
X200991Y555809D01*
X200982Y555806D01*
X200816Y555711D01*
X200647Y555617D01*
X200640Y555611D01*
X200633Y555607D01*
X200486Y555480D01*
X200341Y555355D01*
X200336Y555348D01*
X200329Y555342D01*
X200212Y555190D01*
X200093Y555038D01*
X200089Y555030D01*
X200084Y555023D01*
X199932Y554728D01*
X198918Y552281D01*
X195846Y549208D01*
X192366Y547767D01*
X191831Y547545D01*
X187486Y547545D01*
X183471Y549208D01*
X180399Y552281D01*
X178736Y556295D01*
X178736Y560641D01*
X180399Y564655D01*
X183471Y567728D01*
X187486Y569391D01*
X191831Y569391D01*
X195846Y567728D01*
X198918Y564655D01*
X199932Y562208D01*
X199936Y562200D01*
X199939Y562192D01*
X200031Y562024D01*
X200122Y561853D01*
X200128Y561846D01*
X200132Y561839D01*
X200255Y561692D01*
X200379Y561543D01*
X200386Y561537D01*
X200391Y561530D01*
X200543Y561409D01*
X200691Y561289D01*
X200699Y561285D01*
X200706Y561279D01*
X200878Y561191D01*
X201048Y561102D01*
X201056Y561100D01*
X201064Y561096D01*
X201249Y561043D01*
X201434Y560989D01*
X201443Y560988D01*
X201452Y560986D01*
X201643Y560971D01*
X201835Y560954D01*
X201844Y560955D01*
X201853Y560955D01*
X202044Y560978D01*
X202235Y561000D01*
X202244Y561002D01*
X202253Y561003D01*
X202436Y561064D01*
X202619Y561123D01*
X202626Y561127D01*
X202635Y561130D01*
X202803Y561226D01*
X202970Y561319D01*
X202977Y561325D01*
X202985Y561329D01*
X203130Y561456D01*
X203276Y561581D01*
X203282Y561588D01*
X203288Y561594D01*
X203405Y561746D01*
X203524Y561898D01*
X203528Y561906D01*
X203534Y561913D01*
X203685Y562208D01*
X204937Y565231D01*
X208296Y568589D01*
X212684Y570407D01*
X217433Y570407D01*
X221821Y568589D01*
X225180Y565231D01*
X226432Y562208D01*
X226436Y562200D01*
X226439Y562192D01*
X226531Y562023D01*
X226622Y561853D01*
X226628Y561846D01*
X226632Y561839D01*
X226756Y561691D01*
X226878Y561543D01*
X226885Y561537D01*
X226891Y561530D01*
X227041Y561411D01*
X227191Y561289D01*
X227199Y561285D01*
X227206Y561279D01*
X227375Y561192D01*
X227547Y561102D01*
X227556Y561100D01*
X227564Y561096D01*
X227747Y561044D01*
X227934Y560989D01*
X227943Y560988D01*
X227951Y560986D01*
X228142Y560971D01*
X228335Y560954D01*
X228344Y560955D01*
X228353Y560955D01*
X228544Y560978D01*
X228735Y561000D01*
X228744Y561002D01*
X228752Y561003D01*
X228933Y561063D01*
X229118Y561123D01*
X229126Y561127D01*
X229135Y561130D01*
X229301Y561225D01*
X229470Y561319D01*
X229477Y561325D01*
X229484Y561329D01*
X229631Y561457D01*
X229776Y561581D01*
X229781Y561588D01*
X229788Y561594D01*
X229905Y561746D01*
X230024Y561898D01*
X230028Y561906D01*
X230033Y561913D01*
X230185Y562208D01*
X231199Y564655D01*
X234271Y567728D01*
X238286Y569391D01*
X242631Y569391D01*
X246646Y567728D01*
X249718Y564655D01*
X250748Y562169D01*
X250790Y562091D01*
X250823Y562009D01*
X250885Y561914D01*
X250938Y561814D01*
X250995Y561746D01*
X251043Y561672D01*
X251123Y561591D01*
X251195Y561504D01*
X251264Y561448D01*
X251326Y561385D01*
X251420Y561322D01*
X251507Y561250D01*
X251586Y561209D01*
X251660Y561159D01*
X251764Y561116D01*
X251864Y561063D01*
X251949Y561038D01*
X252031Y561004D01*
X252142Y560982D01*
X252250Y560950D01*
X252339Y560943D01*
X252426Y560925D01*
X252539Y560925D01*
X252651Y560916D01*
X252740Y560925D01*
X252828Y560926D01*
X252939Y560948D01*
X253052Y560961D01*
X253136Y560988D01*
X253223Y561005D01*
X253327Y561049D01*
X253435Y561084D01*
X253512Y561127D01*
X253594Y561162D01*
X253688Y561225D01*
X253786Y561280D01*
X253854Y561338D01*
X253927Y561388D01*
X254006Y561468D01*
X254092Y561542D01*
X254147Y561612D01*
X254209Y561675D01*
X254271Y561770D01*
X254340Y561859D01*
X254380Y561938D01*
X254429Y562013D01*
X254483Y562143D01*
X254521Y562219D01*
X254533Y562263D01*
X254557Y562319D01*
X254794Y563051D01*
X255648Y564725D01*
X256752Y566246D01*
X258081Y567574D01*
X259601Y568679D01*
X261276Y569532D01*
X263063Y570113D01*
X263319Y570153D01*
X263319Y558976D01*
X263321Y558959D01*
X263320Y558941D01*
X263341Y558758D01*
X263359Y558576D01*
X263364Y558559D01*
X263366Y558541D01*
X263392Y558463D01*
X263352Y558326D01*
X263351Y558308D01*
X263346Y558291D01*
X263319Y557960D01*
X263319Y546783D01*
X263063Y546823D01*
X261276Y547404D01*
X259601Y548257D01*
X258081Y549362D01*
X256752Y550691D01*
X255648Y552211D01*
X254794Y553885D01*
X254557Y554617D01*
X254521Y554699D01*
X254494Y554783D01*
X254440Y554882D01*
X254395Y554986D01*
X254344Y555059D01*
X254301Y555137D01*
X254228Y555223D01*
X254164Y555316D01*
X254099Y555377D01*
X254042Y555445D01*
X253954Y555515D01*
X253872Y555593D01*
X253797Y555640D01*
X253727Y555696D01*
X253627Y555747D01*
X253531Y555808D01*
X253448Y555839D01*
X253369Y555880D01*
X253260Y555910D01*
X253155Y555951D01*
X253067Y555965D01*
X252982Y555989D01*
X252869Y555998D01*
X252758Y556017D01*
X252669Y556014D01*
X252580Y556020D01*
X252468Y556007D01*
X252355Y556003D01*
X252269Y555982D01*
X252181Y555972D01*
X252073Y555936D01*
X251963Y555910D01*
X251883Y555873D01*
X251798Y555845D01*
X251700Y555789D01*
X251598Y555742D01*
X251526Y555690D01*
X251449Y555646D01*
X251363Y555571D01*
X251272Y555505D01*
X251212Y555440D01*
X251145Y555381D01*
X251076Y555292D01*
X251000Y555208D01*
X250954Y555132D01*
X250900Y555062D01*
X250835Y554937D01*
X250791Y554864D01*
X250776Y554821D01*
X250748Y554767D01*
X249718Y552281D01*
X246646Y549208D01*
X243166Y547767D01*
X242631Y547545D01*
X238286Y547545D01*
X234271Y549208D01*
X231199Y552281D01*
X230185Y554728D01*
X230181Y554736D01*
X230178Y554745D01*
X230086Y554912D01*
X229995Y555083D01*
X229989Y555090D01*
X229985Y555098D01*
X229862Y555244D01*
X229738Y555393D01*
X229731Y555399D01*
X229726Y555406D01*
X229575Y555526D01*
X229426Y555647D01*
X229418Y555651D01*
X229411Y555657D01*
X229239Y555745D01*
X229069Y555834D01*
X229061Y555837D01*
X229053Y555841D01*
X228868Y555893D01*
X228683Y555947D01*
X228674Y555948D01*
X228665Y555950D01*
X228474Y555965D01*
X228282Y555982D01*
X228273Y555981D01*
X228264Y555982D01*
X228073Y555958D01*
X227882Y555937D01*
X227873Y555934D01*
X227864Y555933D01*
X227681Y555872D01*
X227498Y555814D01*
X227491Y555809D01*
X227482Y555806D01*
X227314Y555711D01*
X227147Y555617D01*
X227140Y555611D01*
X227132Y555607D01*
X226987Y555480D01*
X226841Y555355D01*
X226835Y555348D01*
X226829Y555342D01*
X226712Y555190D01*
X226593Y555038D01*
X226589Y555030D01*
X226583Y555023D01*
X226432Y554728D01*
X225180Y551705D01*
X221821Y548347D01*
X217433Y546529D01*
X212684Y546529D01*
G37*
%LPD*%
%LPC*%
G36*
X805394Y98833D02*
X805394Y98833D01*
X803444Y99641D01*
X801951Y101134D01*
X801143Y103084D01*
X801143Y105196D01*
X801951Y107146D01*
X803444Y108639D01*
X805394Y109447D01*
X806767Y109447D01*
X806829Y109454D01*
X806892Y109451D01*
X807009Y109474D01*
X807126Y109487D01*
X807185Y109507D01*
X807247Y109519D01*
X807356Y109566D01*
X807468Y109604D01*
X807521Y109637D01*
X807579Y109662D01*
X807651Y109717D01*
X807775Y109794D01*
X807860Y109877D01*
X807925Y109926D01*
X866422Y168423D01*
X866461Y168472D01*
X866507Y168515D01*
X866573Y168613D01*
X866647Y168705D01*
X866675Y168762D01*
X866710Y168813D01*
X866754Y168924D01*
X866806Y169030D01*
X866820Y169091D01*
X866843Y169149D01*
X866856Y169240D01*
X866889Y169382D01*
X866890Y169500D01*
X866901Y169581D01*
X866901Y175206D01*
X866894Y175268D01*
X866897Y175330D01*
X866874Y175447D01*
X866861Y175565D01*
X866841Y175624D01*
X866829Y175686D01*
X866782Y175794D01*
X866744Y175906D01*
X866711Y175960D01*
X866686Y176017D01*
X866631Y176090D01*
X866554Y176214D01*
X866471Y176299D01*
X866422Y176363D01*
X865451Y177334D01*
X864643Y179284D01*
X864643Y181396D01*
X865451Y183346D01*
X866944Y184839D01*
X868894Y185647D01*
X871006Y185647D01*
X872956Y184839D01*
X874449Y183346D01*
X875257Y181396D01*
X875257Y179284D01*
X874449Y177334D01*
X873478Y176363D01*
X873439Y176315D01*
X873393Y176272D01*
X873327Y176174D01*
X873253Y176081D01*
X873225Y176025D01*
X873190Y175973D01*
X873146Y175863D01*
X873094Y175756D01*
X873080Y175695D01*
X873057Y175637D01*
X873045Y175547D01*
X873011Y175405D01*
X873010Y175286D01*
X872999Y175206D01*
X872999Y166377D01*
X812236Y105615D01*
X812197Y105566D01*
X812151Y105523D01*
X812085Y105425D01*
X812011Y105333D01*
X811983Y105276D01*
X811948Y105225D01*
X811904Y105114D01*
X811852Y105008D01*
X811838Y104947D01*
X811815Y104889D01*
X811803Y104798D01*
X811769Y104656D01*
X811768Y104537D01*
X811757Y104457D01*
X811757Y103084D01*
X810949Y101134D01*
X809456Y99641D01*
X807506Y98833D01*
X805394Y98833D01*
G37*
%LPD*%
%LPC*%
G36*
X719918Y23747D02*
X719918Y23747D01*
X717490Y24752D01*
X715632Y26610D01*
X714627Y29038D01*
X714627Y31665D01*
X715632Y34093D01*
X717449Y35910D01*
X717488Y35958D01*
X717534Y36001D01*
X717601Y36099D01*
X717675Y36192D01*
X717702Y36248D01*
X717738Y36300D01*
X717781Y36410D01*
X717833Y36517D01*
X717848Y36578D01*
X717871Y36636D01*
X717883Y36726D01*
X717917Y36868D01*
X717918Y36987D01*
X717929Y37067D01*
X717929Y56665D01*
X717926Y56687D01*
X717928Y56709D01*
X717906Y56867D01*
X717889Y57025D01*
X717882Y57045D01*
X717879Y57067D01*
X717823Y57216D01*
X717771Y57366D01*
X717760Y57385D01*
X717752Y57406D01*
X717665Y57538D01*
X717581Y57674D01*
X717566Y57690D01*
X717554Y57708D01*
X717440Y57818D01*
X717329Y57932D01*
X717310Y57944D01*
X717294Y57960D01*
X717220Y58003D01*
X717026Y58129D01*
X716963Y58152D01*
X716918Y58178D01*
X715238Y58874D01*
X713460Y60652D01*
X712497Y62976D01*
X712497Y65492D01*
X713460Y67816D01*
X715238Y69594D01*
X717562Y70557D01*
X720078Y70557D01*
X722402Y69594D01*
X724180Y67816D01*
X725143Y65492D01*
X725143Y62976D01*
X724659Y61808D01*
X724630Y61709D01*
X724592Y61613D01*
X724583Y61547D01*
X724558Y61461D01*
X724547Y61277D01*
X724534Y61181D01*
X724534Y37067D01*
X724541Y37005D01*
X724539Y36943D01*
X724561Y36826D01*
X724574Y36708D01*
X724594Y36649D01*
X724606Y36587D01*
X724653Y36478D01*
X724692Y36367D01*
X724725Y36313D01*
X724750Y36256D01*
X724805Y36183D01*
X724881Y36059D01*
X724965Y35974D01*
X725014Y35910D01*
X726831Y34093D01*
X727836Y31665D01*
X727836Y29038D01*
X726831Y26610D01*
X724973Y24752D01*
X722545Y23747D01*
X719918Y23747D01*
G37*
%LPD*%
%LPC*%
G36*
X400420Y10850D02*
X400420Y10850D01*
X396405Y12513D01*
X393333Y15585D01*
X391670Y19600D01*
X391670Y23945D01*
X393333Y27960D01*
X396405Y31033D01*
X400420Y32695D01*
X404765Y32695D01*
X408780Y31033D01*
X411852Y27960D01*
X413515Y23945D01*
X413515Y19600D01*
X411852Y15585D01*
X408780Y12513D01*
X404765Y10850D01*
X400420Y10850D01*
G37*
%LPD*%
%LPC*%
G36*
X324220Y10850D02*
X324220Y10850D01*
X320205Y12513D01*
X317133Y15585D01*
X315470Y19600D01*
X315470Y23945D01*
X317133Y27960D01*
X320205Y31033D01*
X324220Y32695D01*
X328565Y32695D01*
X332580Y31033D01*
X335652Y27960D01*
X337315Y23945D01*
X337315Y19600D01*
X335652Y15585D01*
X332580Y12513D01*
X328565Y10850D01*
X324220Y10850D01*
G37*
%LPD*%
%LPC*%
G36*
X375020Y10850D02*
X375020Y10850D01*
X371005Y12513D01*
X367933Y15585D01*
X366270Y19600D01*
X366270Y23945D01*
X367933Y27960D01*
X371005Y31033D01*
X375020Y32695D01*
X379365Y32695D01*
X383380Y31033D01*
X386452Y27960D01*
X388115Y23945D01*
X388115Y19600D01*
X386452Y15585D01*
X383380Y12513D01*
X379365Y10850D01*
X375020Y10850D01*
G37*
%LPD*%
%LPC*%
G36*
X349620Y10850D02*
X349620Y10850D01*
X345605Y12513D01*
X342533Y15585D01*
X340870Y19600D01*
X340870Y23945D01*
X342533Y27960D01*
X345605Y31033D01*
X349620Y32695D01*
X353965Y32695D01*
X357980Y31033D01*
X361052Y27960D01*
X362715Y23945D01*
X362715Y19600D01*
X361052Y15585D01*
X357980Y12513D01*
X353965Y10850D01*
X349620Y10850D01*
G37*
%LPD*%
%LPC*%
G36*
X805394Y175033D02*
X805394Y175033D01*
X803444Y175841D01*
X801951Y177334D01*
X801143Y179284D01*
X801143Y181396D01*
X801951Y183346D01*
X803444Y184839D01*
X805394Y185647D01*
X806767Y185647D01*
X806829Y185654D01*
X806892Y185651D01*
X807009Y185674D01*
X807126Y185687D01*
X807185Y185707D01*
X807247Y185719D01*
X807356Y185766D01*
X807468Y185804D01*
X807521Y185837D01*
X807579Y185862D01*
X807651Y185917D01*
X807775Y185994D01*
X807860Y186077D01*
X807925Y186126D01*
X826064Y204265D01*
X826103Y204314D01*
X826149Y204357D01*
X826215Y204455D01*
X826289Y204547D01*
X826317Y204604D01*
X826352Y204655D01*
X826396Y204766D01*
X826448Y204872D01*
X826462Y204933D01*
X826485Y204991D01*
X826498Y205082D01*
X826531Y205224D01*
X826532Y205342D01*
X826543Y205423D01*
X826543Y206796D01*
X827351Y208746D01*
X828844Y210239D01*
X830794Y211047D01*
X832906Y211047D01*
X834856Y210239D01*
X836349Y208746D01*
X837157Y206796D01*
X837157Y204684D01*
X836349Y202734D01*
X834856Y201241D01*
X832906Y200433D01*
X831533Y200433D01*
X831471Y200426D01*
X831408Y200429D01*
X831292Y200406D01*
X831174Y200393D01*
X831115Y200373D01*
X831053Y200361D01*
X830944Y200314D01*
X830832Y200276D01*
X830779Y200243D01*
X830721Y200218D01*
X830649Y200163D01*
X830525Y200086D01*
X830440Y200003D01*
X830375Y199954D01*
X812236Y181815D01*
X812197Y181766D01*
X812151Y181723D01*
X812085Y181625D01*
X812011Y181533D01*
X811983Y181476D01*
X811948Y181425D01*
X811904Y181314D01*
X811852Y181208D01*
X811838Y181147D01*
X811815Y181089D01*
X811803Y180998D01*
X811769Y180856D01*
X811768Y180737D01*
X811757Y180657D01*
X811757Y179284D01*
X810949Y177334D01*
X809456Y175841D01*
X807506Y175033D01*
X805394Y175033D01*
G37*
%LPD*%
%LPC*%
G36*
X443679Y548155D02*
X443679Y548155D01*
X440318Y549547D01*
X437745Y552120D01*
X436353Y555481D01*
X436353Y559119D01*
X437745Y562480D01*
X440318Y565052D01*
X443679Y566444D01*
X447317Y566444D01*
X450678Y565052D01*
X453250Y562480D01*
X454643Y559119D01*
X454643Y555481D01*
X453250Y552120D01*
X450678Y549547D01*
X447317Y548155D01*
X443679Y548155D01*
G37*
%LPD*%
%LPC*%
G36*
X469079Y548155D02*
X469079Y548155D01*
X465718Y549547D01*
X463145Y552120D01*
X461753Y555481D01*
X461753Y559119D01*
X463145Y562480D01*
X465718Y565052D01*
X469079Y566444D01*
X472717Y566444D01*
X476078Y565052D01*
X478650Y562480D01*
X480043Y559119D01*
X480043Y555481D01*
X478650Y552120D01*
X476078Y549547D01*
X472717Y548155D01*
X469079Y548155D01*
G37*
%LPD*%
%LPC*%
G36*
X328109Y548155D02*
X328109Y548155D01*
X324748Y549547D01*
X322175Y552120D01*
X320783Y555481D01*
X320783Y559119D01*
X322175Y562480D01*
X324748Y565052D01*
X328109Y566444D01*
X331747Y566444D01*
X335108Y565052D01*
X337680Y562480D01*
X339073Y559119D01*
X339073Y555481D01*
X337680Y552120D01*
X335108Y549547D01*
X331747Y548155D01*
X328109Y548155D01*
G37*
%LPD*%
%LPC*%
G36*
X353509Y548155D02*
X353509Y548155D01*
X350148Y549547D01*
X347575Y552120D01*
X346183Y555481D01*
X346183Y559119D01*
X347575Y562480D01*
X350148Y565052D01*
X353509Y566444D01*
X357147Y566444D01*
X360508Y565052D01*
X363080Y562480D01*
X364473Y559119D01*
X364473Y555481D01*
X363080Y552120D01*
X360508Y549547D01*
X357147Y548155D01*
X353509Y548155D01*
G37*
%LPD*%
%LPC*%
G36*
X378909Y548155D02*
X378909Y548155D01*
X375548Y549547D01*
X372975Y552120D01*
X371583Y555481D01*
X371583Y559119D01*
X372975Y562480D01*
X375548Y565052D01*
X378909Y566444D01*
X382547Y566444D01*
X385908Y565052D01*
X388480Y562480D01*
X389873Y559119D01*
X389873Y555481D01*
X388480Y552120D01*
X385908Y549547D01*
X382547Y548155D01*
X378909Y548155D01*
G37*
%LPD*%
%LPC*%
G36*
X418279Y548155D02*
X418279Y548155D01*
X414918Y549547D01*
X412345Y552120D01*
X410953Y555481D01*
X410953Y559119D01*
X412345Y562480D01*
X414918Y565052D01*
X418279Y566444D01*
X421917Y566444D01*
X425278Y565052D01*
X427850Y562480D01*
X429243Y559119D01*
X429243Y555481D01*
X427850Y552120D01*
X425278Y549547D01*
X421917Y548155D01*
X418279Y548155D01*
G37*
%LPD*%
%LPC*%
G36*
X509058Y549359D02*
X509058Y549359D01*
X505696Y550752D01*
X503124Y553324D01*
X501732Y556685D01*
X501732Y560323D01*
X503124Y563684D01*
X505696Y566257D01*
X505956Y566364D01*
X509058Y567649D01*
X512696Y567649D01*
X516057Y566257D01*
X518629Y563684D01*
X520021Y560323D01*
X520021Y556685D01*
X518629Y553324D01*
X516057Y550752D01*
X513755Y549798D01*
X512696Y549359D01*
X509058Y549359D01*
G37*
%LPD*%
%LPC*%
G36*
X534458Y549359D02*
X534458Y549359D01*
X531096Y550752D01*
X528524Y553324D01*
X527132Y556685D01*
X527132Y560323D01*
X528524Y563684D01*
X531096Y566257D01*
X531356Y566364D01*
X534458Y567649D01*
X538096Y567649D01*
X541457Y566257D01*
X544029Y563684D01*
X545421Y560323D01*
X545421Y556685D01*
X544029Y553324D01*
X541457Y550752D01*
X539155Y549798D01*
X538096Y549359D01*
X534458Y549359D01*
G37*
%LPD*%
%LPC*%
G36*
X559858Y549359D02*
X559858Y549359D01*
X556496Y550752D01*
X553924Y553324D01*
X552532Y556685D01*
X552532Y560323D01*
X553924Y563684D01*
X556496Y566257D01*
X556756Y566364D01*
X559858Y567649D01*
X563496Y567649D01*
X566857Y566257D01*
X569429Y563684D01*
X570821Y560323D01*
X570821Y556685D01*
X569429Y553324D01*
X566857Y550752D01*
X564555Y549798D01*
X563496Y549359D01*
X559858Y549359D01*
G37*
%LPD*%
%LPC*%
G36*
X468642Y82577D02*
X468642Y82577D01*
X466318Y83540D01*
X464540Y85318D01*
X463577Y87642D01*
X463577Y90158D01*
X464540Y92482D01*
X466318Y94260D01*
X468642Y95223D01*
X471158Y95223D01*
X473482Y94260D01*
X475260Y92482D01*
X476223Y90158D01*
X476223Y87642D01*
X475260Y85318D01*
X473482Y83540D01*
X471158Y82577D01*
X468642Y82577D01*
G37*
%LPD*%
%LPC*%
G36*
X468642Y120677D02*
X468642Y120677D01*
X466318Y121640D01*
X464540Y123418D01*
X463577Y125742D01*
X463577Y128258D01*
X464540Y130582D01*
X466318Y132360D01*
X468642Y133323D01*
X471158Y133323D01*
X473482Y132360D01*
X475260Y130582D01*
X476223Y128258D01*
X476223Y125742D01*
X475260Y123418D01*
X473482Y121640D01*
X471158Y120677D01*
X468642Y120677D01*
G37*
%LPD*%
%LPC*%
G36*
X322592Y228627D02*
X322592Y228627D01*
X320268Y229590D01*
X318490Y231368D01*
X317527Y233692D01*
X317527Y236208D01*
X318490Y238532D01*
X320268Y240310D01*
X322592Y241273D01*
X325108Y241273D01*
X327432Y240310D01*
X329210Y238532D01*
X330173Y236208D01*
X330173Y233692D01*
X329210Y231368D01*
X327432Y229590D01*
X325108Y228627D01*
X322592Y228627D01*
G37*
%LPD*%
%LPC*%
G36*
X180133Y43487D02*
X180133Y43487D01*
X178079Y44337D01*
X176507Y45909D01*
X175656Y47964D01*
X175656Y50187D01*
X176507Y52241D01*
X178079Y53813D01*
X180133Y54664D01*
X182357Y54664D01*
X184411Y53813D01*
X185983Y52241D01*
X186834Y50187D01*
X186834Y47964D01*
X185983Y45909D01*
X184411Y44337D01*
X182357Y43487D01*
X180133Y43487D01*
G37*
%LPD*%
%LPC*%
G36*
X188612Y528016D02*
X188612Y528016D01*
X186558Y528866D01*
X184986Y530439D01*
X184135Y532493D01*
X184135Y534716D01*
X184986Y536770D01*
X186558Y538342D01*
X188612Y539193D01*
X190836Y539193D01*
X192890Y538342D01*
X194462Y536770D01*
X195313Y534716D01*
X195313Y532493D01*
X194462Y530439D01*
X192890Y528866D01*
X190836Y528016D01*
X188612Y528016D01*
G37*
%LPD*%
%LPC*%
G36*
X324008Y421131D02*
X324008Y421131D01*
X321954Y421982D01*
X320382Y423554D01*
X319531Y425608D01*
X319531Y427832D01*
X320382Y429886D01*
X321954Y431458D01*
X324008Y432309D01*
X326232Y432309D01*
X328286Y431458D01*
X329858Y429886D01*
X330709Y427832D01*
X330709Y425608D01*
X329858Y423554D01*
X328286Y421982D01*
X326232Y421131D01*
X324008Y421131D01*
G37*
%LPD*%
%LPC*%
G36*
X541146Y42329D02*
X541146Y42329D01*
X539092Y43180D01*
X537520Y44752D01*
X536669Y46806D01*
X536669Y49029D01*
X537520Y51083D01*
X539092Y52656D01*
X541146Y53506D01*
X543369Y53506D01*
X545423Y52656D01*
X546995Y51083D01*
X547846Y49029D01*
X547846Y46806D01*
X546995Y44752D01*
X545423Y43180D01*
X543369Y42329D01*
X541146Y42329D01*
G37*
%LPD*%
%LPC*%
G36*
X611218Y41733D02*
X611218Y41733D01*
X609164Y42584D01*
X607592Y44156D01*
X606741Y46210D01*
X606741Y48433D01*
X607592Y50487D01*
X609164Y52060D01*
X611218Y52910D01*
X613441Y52910D01*
X615495Y52060D01*
X617067Y50487D01*
X617918Y48433D01*
X617918Y46210D01*
X617067Y44156D01*
X615495Y42584D01*
X613441Y41733D01*
X611218Y41733D01*
G37*
%LPD*%
%LPC*%
G36*
X322794Y286793D02*
X322794Y286793D01*
X320844Y287601D01*
X319351Y289094D01*
X318543Y291044D01*
X318543Y293156D01*
X319351Y295106D01*
X320844Y296599D01*
X322794Y297407D01*
X324906Y297407D01*
X326856Y296599D01*
X328349Y295106D01*
X329157Y293156D01*
X329157Y291044D01*
X328349Y289094D01*
X326856Y287601D01*
X324906Y286793D01*
X322794Y286793D01*
G37*
%LPD*%
%LPC*%
G36*
X373594Y312193D02*
X373594Y312193D01*
X371644Y313001D01*
X370151Y314494D01*
X369343Y316444D01*
X369343Y318556D01*
X370151Y320506D01*
X371644Y321999D01*
X373594Y322807D01*
X375706Y322807D01*
X377656Y321999D01*
X379149Y320506D01*
X379957Y318556D01*
X379957Y316444D01*
X379149Y314494D01*
X377656Y313001D01*
X375706Y312193D01*
X373594Y312193D01*
G37*
%LPD*%
%LPC*%
G36*
X360894Y290459D02*
X360894Y290459D01*
X358944Y291267D01*
X357451Y292760D01*
X356643Y294710D01*
X356643Y296822D01*
X357451Y298772D01*
X358944Y300265D01*
X360894Y301073D01*
X363006Y301073D01*
X364956Y300265D01*
X366449Y298772D01*
X367257Y296822D01*
X367257Y294710D01*
X366449Y292760D01*
X364956Y291267D01*
X363006Y290459D01*
X360894Y290459D01*
G37*
%LPD*%
%LPC*%
G36*
X506944Y388393D02*
X506944Y388393D01*
X504994Y389201D01*
X503501Y390694D01*
X502693Y392644D01*
X502693Y394756D01*
X503501Y396706D01*
X504994Y398199D01*
X506944Y399007D01*
X509056Y399007D01*
X511006Y398199D01*
X512499Y396706D01*
X513307Y394756D01*
X513307Y392644D01*
X512499Y390694D01*
X511006Y389201D01*
X509056Y388393D01*
X506944Y388393D01*
G37*
%LPD*%
%LPC*%
G36*
X268398Y561007D02*
X268398Y561007D01*
X268398Y570153D01*
X268654Y570113D01*
X270441Y569532D01*
X272116Y568679D01*
X273636Y567574D01*
X274965Y566246D01*
X276069Y564725D01*
X276923Y563051D01*
X277503Y561264D01*
X277544Y561007D01*
X268398Y561007D01*
G37*
%LPD*%
%LPC*%
G36*
X184602Y343715D02*
X184602Y343715D01*
X184602Y352861D01*
X184859Y352820D01*
X186646Y352240D01*
X188320Y351386D01*
X189841Y350282D01*
X191169Y348953D01*
X192274Y347433D01*
X193127Y345758D01*
X193708Y343971D01*
X193748Y343715D01*
X184602Y343715D01*
G37*
%LPD*%
%LPC*%
G36*
X259650Y22480D02*
X259650Y22480D01*
X259650Y31626D01*
X259906Y31586D01*
X261693Y31005D01*
X263368Y30152D01*
X264888Y29047D01*
X266217Y27719D01*
X267321Y26198D01*
X268174Y24524D01*
X268755Y22737D01*
X268796Y22480D01*
X259650Y22480D01*
G37*
%LPD*%
%LPC*%
G36*
X268398Y555929D02*
X268398Y555929D01*
X277544Y555929D01*
X277503Y555672D01*
X276923Y553885D01*
X276069Y552211D01*
X274965Y550691D01*
X273636Y549362D01*
X272116Y548257D01*
X270441Y547404D01*
X268654Y546823D01*
X268398Y546783D01*
X268398Y555929D01*
G37*
%LPD*%
%LPC*%
G36*
X170378Y343715D02*
X170378Y343715D01*
X170418Y343971D01*
X170999Y345758D01*
X171852Y347433D01*
X172957Y348953D01*
X174285Y350282D01*
X175806Y351386D01*
X177480Y352240D01*
X179267Y352820D01*
X179524Y352861D01*
X179524Y343715D01*
X170378Y343715D01*
G37*
%LPD*%
%LPC*%
G36*
X259650Y17402D02*
X259650Y17402D01*
X268796Y17402D01*
X268755Y17145D01*
X268174Y15358D01*
X267321Y13684D01*
X266217Y12163D01*
X264888Y10835D01*
X263368Y9730D01*
X261693Y8877D01*
X259906Y8296D01*
X259650Y8256D01*
X259650Y17402D01*
G37*
%LPD*%
%LPC*%
G36*
X300805Y320541D02*
X300805Y320541D01*
X299017Y321122D01*
X297343Y321975D01*
X295823Y323079D01*
X294494Y324408D01*
X293389Y325928D01*
X292536Y327603D01*
X291955Y329390D01*
X291915Y329646D01*
X301061Y329646D01*
X301061Y320500D01*
X300805Y320541D01*
G37*
%LPD*%
%LPC*%
G36*
X691401Y25512D02*
X691401Y25512D01*
X691401Y34658D01*
X691658Y34617D01*
X693445Y34036D01*
X695119Y33183D01*
X696640Y32079D01*
X697968Y30750D01*
X699073Y29230D01*
X699926Y27555D01*
X700507Y25768D01*
X700548Y25512D01*
X691401Y25512D01*
G37*
%LPD*%
%LPC*%
G36*
X306140Y329646D02*
X306140Y329646D01*
X315286Y329646D01*
X315245Y329390D01*
X314664Y327603D01*
X313811Y325928D01*
X312706Y324408D01*
X311378Y323079D01*
X309857Y321975D01*
X308183Y321122D01*
X306396Y320541D01*
X306140Y320500D01*
X306140Y329646D01*
G37*
%LPD*%
%LPC*%
G36*
X691401Y20433D02*
X691401Y20433D01*
X700548Y20433D01*
X700507Y20177D01*
X699926Y18390D01*
X699073Y16715D01*
X697968Y15195D01*
X696640Y13866D01*
X695119Y12762D01*
X693445Y11909D01*
X691658Y11328D01*
X691401Y11287D01*
X691401Y20433D01*
G37*
%LPD*%
D10*
X909551Y511733D03*
D11*
X909551Y583733D03*
D12*
X982314Y356940D03*
X982314Y369440D03*
D13*
X1015814Y387940D03*
X1015814Y338440D03*
D14*
X688862Y22973D03*
X663462Y22973D03*
X638062Y22973D03*
X612662Y22973D03*
X326393Y21773D03*
X351793Y21773D03*
X377193Y21773D03*
X402593Y21773D03*
X265859Y558468D03*
X240459Y558468D03*
X215059Y558468D03*
X189659Y558468D03*
X257110Y19941D03*
X231710Y19941D03*
X206310Y19941D03*
X180910Y19941D03*
X182063Y341175D03*
X182063Y315775D03*
X182063Y290375D03*
X182063Y264975D03*
D15*
X329928Y557300D03*
X355328Y557300D03*
X380728Y557300D03*
X420098Y557300D03*
X445498Y557300D03*
X470898Y557300D03*
X510877Y558504D03*
X536277Y558504D03*
X561677Y558504D03*
D14*
X440390Y21478D03*
X465790Y21478D03*
X491190Y21478D03*
X516590Y21478D03*
X541990Y21478D03*
X303600Y332186D03*
X303600Y357586D03*
X303600Y382986D03*
X303600Y408386D03*
D16*
X542258Y47918D03*
X612330Y47322D03*
X181245Y49075D03*
X187143Y244655D03*
X189724Y533604D03*
X325120Y426720D03*
X942296Y363265D03*
X960120Y335280D03*
D17*
X953441Y352119D02*
X942296Y363265D01*
X953441Y352119D02*
X953441Y348969D01*
X960120Y342291D02*
X960120Y335280D01*
X960120Y342291D02*
X953441Y348969D01*
D18*
X849630Y532130D03*
X839470Y532130D03*
X829310Y532130D03*
X808990Y593090D03*
X644247Y609527D03*
X644247Y599367D03*
X644247Y589207D03*
X644247Y579047D03*
X819150Y593090D03*
X829310Y593090D03*
X839470Y593090D03*
X779050Y324176D03*
X596527Y362674D03*
D19*
X869950Y450850D03*
X889000Y450850D03*
X908050Y450850D03*
D18*
X808990Y532130D03*
X819150Y532130D03*
X808990Y542290D03*
X819150Y542290D03*
X829310Y542290D03*
X839470Y542290D03*
X849630Y542290D03*
X849630Y552450D03*
X839470Y552450D03*
X829310Y552450D03*
X819150Y552450D03*
X808990Y552450D03*
X808990Y562610D03*
X819150Y562610D03*
X829310Y562610D03*
X839470Y562610D03*
X849630Y562610D03*
X849630Y572770D03*
X839470Y572770D03*
X849630Y593090D03*
X849630Y582930D03*
X839470Y582930D03*
X829310Y572770D03*
X829310Y582930D03*
X819150Y572770D03*
X819150Y582930D03*
X808990Y572770D03*
X808990Y582930D03*
X778510Y532130D03*
X778510Y552450D03*
X778510Y542290D03*
X768350Y552450D03*
X768350Y542290D03*
X758190Y552450D03*
X748030Y552450D03*
X737870Y552450D03*
X737870Y542290D03*
X737870Y532130D03*
X748030Y542290D03*
X748030Y532130D03*
X758190Y532130D03*
X768350Y532130D03*
X758190Y542290D03*
X687610Y334336D03*
X697770Y334336D03*
X707930Y334336D03*
X718090Y334336D03*
X728250Y334336D03*
X687610Y324176D03*
X697770Y324176D03*
X707930Y324176D03*
X718090Y324176D03*
X728250Y324176D03*
X728250Y314016D03*
X718090Y314016D03*
X707930Y314016D03*
X697770Y314016D03*
X687610Y314016D03*
X758730Y314016D03*
X758730Y374976D03*
X768890Y374976D03*
X779050Y374976D03*
X799370Y314016D03*
X789210Y314016D03*
X779050Y314016D03*
X768890Y314016D03*
X758730Y324176D03*
X768890Y324176D03*
X789210Y324176D03*
X799370Y324176D03*
X758730Y334336D03*
X768890Y334336D03*
X779050Y334336D03*
X789210Y334336D03*
X799370Y334336D03*
X799370Y344496D03*
X789210Y344496D03*
X779050Y344496D03*
X768890Y344496D03*
X758730Y344496D03*
X758730Y354656D03*
X768890Y354656D03*
X758730Y364816D03*
X768890Y364816D03*
X779050Y364816D03*
X779050Y354656D03*
X789210Y354656D03*
X789210Y364816D03*
X789210Y374976D03*
X799370Y374976D03*
X799370Y364816D03*
X799370Y354656D03*
D16*
X257251Y48625D03*
X207463Y341175D03*
X265859Y533068D03*
X193040Y518160D03*
X213360Y223520D03*
X223520Y335280D03*
X162560Y81280D03*
X294640Y558800D03*
X345440Y487680D03*
X375920Y477520D03*
X436880Y487680D03*
X538480Y477520D03*
X479792Y478178D03*
X853019Y513418D03*
D17*
X853019Y515199D01*
X859790Y521970D01*
X859790Y613410D01*
X849630Y623570D01*
X615950Y623570D01*
X603724Y611344D01*
X603724Y576738D01*
D16*
X603724Y576738D03*
X679450Y247650D03*
D17*
X666750Y247650D01*
X660400Y254000D01*
X660400Y374650D01*
X666750Y381000D01*
X698500Y381000D01*
D16*
X698500Y381000D03*
X844550Y412750D03*
D19*
X584200Y590550D03*
X584200Y577850D03*
X584200Y565150D03*
X603250Y565150D03*
X603250Y552450D03*
X603250Y539750D03*
X584200Y539750D03*
X584200Y552450D03*
X416560Y284480D03*
D17*
X440390Y260650D01*
X440390Y21478D01*
D19*
X908050Y40640D03*
D20*
X908050Y130426D01*
X899696Y138780D01*
X899696Y171986D01*
X958850Y231140D01*
D19*
X958850Y231140D03*
X857250Y239494D03*
X806450Y129540D03*
D20*
X891004Y234600D02*
X886110Y239494D01*
X891004Y234600D02*
X891004Y227680D01*
X886110Y239494D02*
X857250Y239494D01*
X806450Y143126D02*
X806450Y129540D01*
X806450Y143126D02*
X891004Y227680D01*
D19*
X869950Y180340D03*
D20*
X869950Y167640D01*
X806450Y104140D01*
D19*
X806450Y104140D03*
X882650Y231140D03*
D20*
X806450Y231140D01*
D19*
X806450Y231140D03*
X831850Y205740D03*
D20*
X806450Y180340D01*
D19*
X806450Y180340D03*
X469900Y88900D03*
X718820Y64234D03*
D21*
X721231Y61823D01*
X721231Y30351D01*
D16*
X721231Y30351D03*
D19*
X469900Y127000D03*
D16*
X727710Y461010D03*
D17*
X717550Y461010D01*
X707390Y471170D01*
X707390Y567476D01*
X743793Y588684D02*
X746578Y585899D01*
D16*
X746578Y585899D03*
D17*
X743793Y588684D02*
X728599Y588684D01*
X707390Y567476D01*
D19*
X508000Y393700D03*
D21*
X491190Y200960D02*
X491190Y21478D01*
X491190Y200960D02*
X488950Y203200D01*
D19*
X488950Y203200D03*
D21*
X516590Y213660D02*
X516590Y21478D01*
X516590Y213660D02*
X514350Y215900D01*
D19*
X514350Y215900D03*
D22*
X900970Y125878D03*
X806450Y256540D03*
D19*
X297868Y168373D03*
X948198Y263057D03*
X566420Y107950D03*
D16*
X494925Y315381D03*
X465752Y48724D03*
X688680Y47009D03*
X457200Y213360D03*
X467360Y314960D03*
X355600Y233680D03*
X316288Y309281D03*
X304218Y187423D03*
X203200Y436880D03*
D17*
X209977Y430103D01*
D16*
X243840Y436880D03*
D17*
X226903Y430103D02*
X209977Y430103D01*
X226903Y430103D02*
X233680Y436880D01*
X243840Y436880D01*
D16*
X291991Y280913D03*
X223520Y162560D03*
D17*
X233680Y172720D01*
X293521Y172720D02*
X297868Y168373D01*
X293521Y172720D02*
X233680Y172720D01*
D16*
X304800Y467360D03*
X396240Y467360D03*
X497344Y460892D03*
X808990Y303530D03*
D17*
X808990Y405130D01*
X800972Y413148D01*
X565507Y413148D02*
X555347Y402988D01*
X555347Y362348D01*
D16*
X555347Y362348D03*
D17*
X565507Y413148D02*
X800972Y413148D01*
D19*
X546153Y330496D03*
X559386Y330198D03*
X558800Y317500D03*
X546100Y317500D03*
X546100Y304800D03*
D18*
X294640Y254000D03*
D17*
X304800Y436880D02*
X304800Y467360D01*
D18*
X304800Y436880D03*
D17*
X243840Y436880D01*
X497344Y426427D02*
X497344Y460892D01*
X497344Y426427D02*
X497446Y426326D01*
D18*
X497446Y426326D03*
X396240Y426720D03*
D17*
X396240Y467360D01*
D16*
X958794Y372726D03*
D21*
X961503Y370016D01*
X966623Y370016D01*
X970772Y365867D01*
X970772Y364668D01*
X982314Y364668D02*
X982314Y369440D01*
X982314Y364668D02*
X970772Y364668D01*
D16*
X962077Y352546D03*
D21*
X965379Y355848D01*
X966623Y355848D01*
X970772Y359998D01*
X970772Y360604D01*
X982314Y360604D02*
X982314Y356940D01*
X982314Y360604D02*
X970772Y360604D01*
D19*
X323850Y292100D03*
X323850Y234950D03*
D18*
X596527Y372834D03*
X596527Y382994D03*
X596527Y393154D03*
D19*
X374650Y317500D03*
X361950Y295766D03*
M02*
