G04 EAGLE Gerber RS-274X export*
G75*
%MOMM*%
%FSLAX34Y34*%
%LPD*%
%INSilkscreen Bottom*%
%IPPOS*%
%AMOC8*
5,1,8,0,0,1.08239X$1,22.5*%
G01*
%ADD10C,0.200000*%

G36*
X625753Y210320D02*
X625753Y210320D01*
X625796Y210318D01*
X625863Y210340D01*
X625932Y210352D01*
X625969Y210374D01*
X626009Y210387D01*
X626082Y210441D01*
X626126Y210467D01*
X626139Y210483D01*
X626160Y210499D01*
X646160Y230499D01*
X646184Y230533D01*
X646216Y230562D01*
X646248Y230625D01*
X646288Y230683D01*
X646299Y230724D01*
X646318Y230762D01*
X646331Y230851D01*
X646344Y230900D01*
X646342Y230921D01*
X646346Y230947D01*
X646346Y290947D01*
X646338Y290989D01*
X646340Y291031D01*
X646319Y291098D01*
X646306Y291168D01*
X646285Y291204D01*
X646272Y291245D01*
X646218Y291318D01*
X646192Y291361D01*
X646176Y291374D01*
X646160Y291395D01*
X626160Y311395D01*
X626125Y311420D01*
X626097Y311451D01*
X626034Y311483D01*
X625976Y311524D01*
X625935Y311534D01*
X625897Y311554D01*
X625807Y311567D01*
X625759Y311579D01*
X625738Y311577D01*
X625712Y311581D01*
X575712Y311581D01*
X575670Y311574D01*
X575627Y311576D01*
X575560Y311554D01*
X575491Y311542D01*
X575454Y311520D01*
X575414Y311507D01*
X575341Y311453D01*
X575298Y311427D01*
X575284Y311411D01*
X575263Y311395D01*
X555263Y291395D01*
X555239Y291361D01*
X555207Y291332D01*
X555175Y291269D01*
X555135Y291211D01*
X555124Y291170D01*
X555105Y291132D01*
X555092Y291043D01*
X555079Y290994D01*
X555081Y290973D01*
X555077Y290947D01*
X555077Y230947D01*
X555085Y230905D01*
X555083Y230863D01*
X555104Y230796D01*
X555117Y230726D01*
X555139Y230690D01*
X555152Y230649D01*
X555205Y230576D01*
X555231Y230533D01*
X555247Y230520D01*
X555263Y230499D01*
X575263Y210499D01*
X575298Y210474D01*
X575327Y210443D01*
X575389Y210411D01*
X575447Y210370D01*
X575488Y210360D01*
X575526Y210340D01*
X575616Y210327D01*
X575665Y210314D01*
X575685Y210317D01*
X575712Y210313D01*
X625712Y210313D01*
X625753Y210320D01*
G37*
D10*
X1028814Y378190D02*
X1028814Y348190D01*
X999814Y391940D02*
X986314Y391940D01*
X986314Y334440D02*
X999814Y334440D01*
X986314Y375550D02*
X986314Y391940D01*
X986314Y350830D02*
X986314Y334440D01*
X970794Y357030D02*
X970796Y357062D01*
X970802Y357093D01*
X970812Y357124D01*
X970825Y357153D01*
X970842Y357180D01*
X970862Y357205D01*
X970885Y357227D01*
X970910Y357247D01*
X970938Y357263D01*
X970968Y357275D01*
X970998Y357284D01*
X971030Y357289D01*
X971062Y357290D01*
X971094Y357287D01*
X971125Y357280D01*
X971155Y357269D01*
X971184Y357255D01*
X971211Y357237D01*
X971235Y357217D01*
X971257Y357193D01*
X971275Y357167D01*
X971290Y357139D01*
X971302Y357109D01*
X971310Y357078D01*
X971314Y357046D01*
X971314Y357014D01*
X971310Y356982D01*
X971302Y356951D01*
X971290Y356921D01*
X971275Y356893D01*
X971257Y356867D01*
X971235Y356843D01*
X971211Y356823D01*
X971184Y356805D01*
X971155Y356791D01*
X971125Y356780D01*
X971094Y356773D01*
X971062Y356770D01*
X971030Y356771D01*
X970998Y356776D01*
X970968Y356785D01*
X970938Y356797D01*
X970910Y356813D01*
X970885Y356833D01*
X970862Y356855D01*
X970842Y356880D01*
X970825Y356907D01*
X970812Y356936D01*
X970802Y356967D01*
X970796Y356998D01*
X970794Y357030D01*
M02*
