G04 EAGLE Gerber RS-274X export*
G75*
%MOMM*%
%FSLAX34Y34*%
%LPD*%
%INSoldermask Bottom*%
%IPPOS*%
%AMOC8*
5,1,8,0,0,1.08239X$1,22.5*%
G01*
%ADD10C,3.203200*%
%ADD11R,5.719200X5.719200*%
%ADD12C,5.719200*%
%ADD13R,1.903200X0.803200*%
%ADD14R,3.003200X1.203200*%
%ADD15C,2.082800*%
%ADD16C,1.727200*%
%ADD17C,1.016000*%
%ADD18C,0.990600*%
%ADD19C,0.959600*%
%ADD20C,1.009600*%


D10*
X1017270Y12700D03*
X172798Y218081D03*
X171450Y396240D03*
X1016165Y614608D03*
D11*
X909551Y511733D03*
D12*
X909551Y583733D03*
D13*
X982314Y356940D03*
X982314Y369440D03*
D14*
X1015814Y387940D03*
X1015814Y338440D03*
D15*
X688862Y22973D03*
X663462Y22973D03*
X638062Y22973D03*
X612662Y22973D03*
X326393Y21773D03*
X351793Y21773D03*
X377193Y21773D03*
X402593Y21773D03*
X265859Y558468D03*
X240459Y558468D03*
X215059Y558468D03*
X189659Y558468D03*
X257110Y19941D03*
X231710Y19941D03*
X206310Y19941D03*
X180910Y19941D03*
X182063Y341175D03*
X182063Y315775D03*
X182063Y290375D03*
X182063Y264975D03*
D16*
X329928Y557300D03*
X355328Y557300D03*
X380728Y557300D03*
X420098Y557300D03*
X445498Y557300D03*
X470898Y557300D03*
X510877Y558504D03*
X536277Y558504D03*
X561677Y558504D03*
D15*
X440390Y21478D03*
X465790Y21478D03*
X491190Y21478D03*
X516590Y21478D03*
X541990Y21478D03*
X303600Y332186D03*
X303600Y357586D03*
X303600Y382986D03*
X303600Y408386D03*
D17*
X542258Y47918D03*
X612330Y47322D03*
X181245Y49075D03*
X187143Y244655D03*
X189724Y533604D03*
X325120Y426720D03*
X942296Y363265D03*
X960120Y335280D03*
D18*
X849630Y532130D03*
X839470Y532130D03*
X829310Y532130D03*
X808990Y593090D03*
X644247Y609527D03*
X644247Y599367D03*
X644247Y589207D03*
X644247Y579047D03*
X819150Y593090D03*
X829310Y593090D03*
X839470Y593090D03*
X779050Y324176D03*
X596527Y362674D03*
D19*
X869950Y450850D03*
X889000Y450850D03*
X908050Y450850D03*
D18*
X808990Y532130D03*
X819150Y532130D03*
X808990Y542290D03*
X819150Y542290D03*
X829310Y542290D03*
X839470Y542290D03*
X849630Y542290D03*
X849630Y552450D03*
X839470Y552450D03*
X829310Y552450D03*
X819150Y552450D03*
X808990Y552450D03*
X808990Y562610D03*
X819150Y562610D03*
X829310Y562610D03*
X839470Y562610D03*
X849630Y562610D03*
X849630Y572770D03*
X839470Y572770D03*
X849630Y593090D03*
X849630Y582930D03*
X839470Y582930D03*
X829310Y572770D03*
X829310Y582930D03*
X819150Y572770D03*
X819150Y582930D03*
X808990Y572770D03*
X808990Y582930D03*
X778510Y532130D03*
X778510Y552450D03*
X778510Y542290D03*
X768350Y552450D03*
X768350Y542290D03*
X758190Y552450D03*
X748030Y552450D03*
X737870Y552450D03*
X737870Y542290D03*
X737870Y532130D03*
X748030Y542290D03*
X748030Y532130D03*
X758190Y532130D03*
X768350Y532130D03*
X758190Y542290D03*
X687610Y334336D03*
X697770Y334336D03*
X707930Y334336D03*
X718090Y334336D03*
X728250Y334336D03*
X687610Y324176D03*
X697770Y324176D03*
X707930Y324176D03*
X718090Y324176D03*
X728250Y324176D03*
X728250Y314016D03*
X718090Y314016D03*
X707930Y314016D03*
X697770Y314016D03*
X687610Y314016D03*
X758730Y314016D03*
X758730Y374976D03*
X768890Y374976D03*
X779050Y374976D03*
X799370Y314016D03*
X789210Y314016D03*
X779050Y314016D03*
X768890Y314016D03*
X758730Y324176D03*
X768890Y324176D03*
X789210Y324176D03*
X799370Y324176D03*
X758730Y334336D03*
X768890Y334336D03*
X779050Y334336D03*
X789210Y334336D03*
X799370Y334336D03*
X799370Y344496D03*
X789210Y344496D03*
X779050Y344496D03*
X768890Y344496D03*
X758730Y344496D03*
X758730Y354656D03*
X768890Y354656D03*
X758730Y364816D03*
X768890Y364816D03*
X779050Y364816D03*
X779050Y354656D03*
X789210Y354656D03*
X789210Y364816D03*
X789210Y374976D03*
X799370Y374976D03*
X799370Y364816D03*
X799370Y354656D03*
D17*
X257251Y48625D03*
X207463Y341175D03*
X265859Y533068D03*
X193040Y518160D03*
X213360Y223520D03*
X223520Y335280D03*
X162560Y81280D03*
X294640Y558800D03*
X345440Y487680D03*
X375920Y477520D03*
X436880Y487680D03*
X538480Y477520D03*
X479792Y478178D03*
X853019Y513418D03*
X603724Y576738D03*
X679450Y247650D03*
X698500Y381000D03*
X844550Y412750D03*
D19*
X584200Y590550D03*
X584200Y577850D03*
X584200Y565150D03*
X603250Y565150D03*
X603250Y552450D03*
X603250Y539750D03*
X584200Y539750D03*
X584200Y552450D03*
X416560Y284480D03*
X908050Y40640D03*
X958850Y231140D03*
X857250Y239494D03*
X806450Y129540D03*
X869950Y180340D03*
X806450Y104140D03*
X882650Y231140D03*
X806450Y231140D03*
X831850Y205740D03*
X806450Y180340D03*
X469900Y88900D03*
X718820Y64234D03*
D17*
X721231Y30351D03*
D19*
X469900Y127000D03*
D17*
X727710Y461010D03*
X746578Y585899D03*
D19*
X508000Y393700D03*
X488950Y203200D03*
X514350Y215900D03*
D20*
X900970Y125878D03*
X806450Y256540D03*
D19*
X297868Y168373D03*
X948198Y263057D03*
X566420Y107950D03*
D17*
X494925Y315381D03*
X465752Y48724D03*
X688680Y47009D03*
X457200Y213360D03*
X467360Y314960D03*
X355600Y233680D03*
X316288Y309281D03*
X304218Y187423D03*
X203200Y436880D03*
X243840Y436880D03*
X291991Y280913D03*
X223520Y162560D03*
X304800Y467360D03*
X396240Y467360D03*
X497344Y460892D03*
X808990Y303530D03*
X555347Y362348D03*
D19*
X546153Y330496D03*
X559386Y330198D03*
X558800Y317500D03*
X546100Y317500D03*
X546100Y304800D03*
D18*
X294640Y254000D03*
X304800Y436880D03*
X497446Y426326D03*
X396240Y426720D03*
D17*
X958794Y372726D03*
X962077Y352546D03*
D19*
X323850Y292100D03*
X323850Y234950D03*
D18*
X596527Y372834D03*
X596527Y382994D03*
X596527Y393154D03*
D19*
X374650Y317500D03*
X361950Y295766D03*
M02*
