G04 EAGLE Gerber RS-274X export*
G75*
%MOMM*%
%FSLAX34Y34*%
%LPD*%
%INSolderpaste Top*%
%IPPOS*%
%AMOC8*
5,1,8,0,0,1.08239X$1,22.5*%
G01*
%ADD10R,2.000000X1.200000*%
%ADD11R,1.500000X1.300000*%
%ADD12R,1.000000X0.900000*%
%ADD13R,1.200000X1.200000*%
%ADD14R,1.100000X1.000000*%
%ADD15R,1.300000X1.500000*%
%ADD16R,1.000000X1.100000*%
%ADD17R,0.254000X1.143000*%
%ADD18R,1.143000X0.254000*%
%ADD19R,0.800000X0.800000*%
%ADD20R,0.600000X1.200000*%
%ADD21R,2.209800X0.609600*%
%ADD22R,0.900000X0.800000*%
%ADD23R,1.000000X1.400000*%
%ADD24R,0.610000X1.600000*%
%ADD25R,1.000000X1.800000*%
%ADD26R,0.800000X0.900000*%
%ADD27R,0.830000X0.630000*%
%ADD28R,1.800000X4.600000*%
%ADD29R,2.000000X3.500000*%


D10*
X932250Y-4360D03*
X932250Y15640D03*
X932250Y35640D03*
X932250Y55640D03*
X932250Y75640D03*
X932250Y95640D03*
X932250Y115640D03*
X932250Y135640D03*
X782250Y135640D03*
X782250Y115640D03*
X782250Y95640D03*
X782250Y75640D03*
X782250Y55640D03*
X782250Y35640D03*
X782250Y15640D03*
X782250Y-4360D03*
D11*
X933450Y247040D03*
X933450Y266040D03*
X908050Y247040D03*
X908050Y266040D03*
X857250Y266040D03*
X857250Y247040D03*
X869950Y196240D03*
X869950Y215240D03*
D12*
X925450Y226240D03*
X941450Y226240D03*
X941450Y185240D03*
X925450Y185240D03*
X839850Y185240D03*
X823850Y185240D03*
X823850Y226240D03*
X839850Y226240D03*
D13*
X831850Y267040D03*
X831850Y246040D03*
D11*
X882650Y247040D03*
X882650Y266040D03*
D12*
X363213Y402042D03*
X379213Y402042D03*
X379213Y361042D03*
X363213Y361042D03*
D14*
X378824Y417504D03*
X361824Y417504D03*
X751564Y600537D03*
X734564Y600537D03*
D11*
X729452Y494732D03*
X729452Y475732D03*
X746953Y475777D03*
X746953Y494777D03*
D15*
X795796Y600982D03*
X776796Y600982D03*
D11*
X785724Y495309D03*
X785724Y476309D03*
X803061Y495779D03*
X803061Y514779D03*
D15*
X840484Y513590D03*
X821484Y513590D03*
D16*
X766830Y495090D03*
X766830Y478090D03*
D14*
X613462Y594087D03*
X630462Y594087D03*
D16*
X718600Y554827D03*
X718600Y537827D03*
D11*
X697394Y259684D03*
X697394Y278684D03*
D15*
X751978Y391837D03*
X732978Y391837D03*
D11*
X735409Y280129D03*
X735409Y261129D03*
X752780Y296818D03*
X752780Y277818D03*
D15*
X790804Y296733D03*
X771804Y296733D03*
D11*
X679535Y278852D03*
X679535Y259852D03*
D14*
X701459Y392729D03*
X684459Y392729D03*
D16*
X667326Y333708D03*
X667326Y316708D03*
X716476Y278241D03*
X716476Y261241D03*
D14*
X568171Y379408D03*
X585171Y379408D03*
D15*
X380934Y346584D03*
X361934Y346584D03*
D17*
X446600Y302850D03*
X441600Y302850D03*
X436600Y302850D03*
X431600Y302850D03*
X426600Y302850D03*
X421600Y302850D03*
X416600Y302850D03*
X411600Y302850D03*
X406600Y302850D03*
X401600Y302850D03*
X396600Y302850D03*
X391600Y302850D03*
D18*
X376600Y287850D03*
X376600Y282850D03*
X376600Y277850D03*
X376600Y272850D03*
X376600Y267850D03*
X376600Y262850D03*
X376600Y257850D03*
X376600Y252850D03*
X376600Y247850D03*
X376600Y242850D03*
X376600Y237850D03*
X376600Y232850D03*
D17*
X391600Y217850D03*
X396600Y217850D03*
X401600Y217850D03*
X406600Y217850D03*
X411600Y217850D03*
X416600Y217850D03*
X421600Y217850D03*
X426600Y217850D03*
X431600Y217850D03*
X436600Y217850D03*
X441600Y217850D03*
X446600Y217850D03*
D18*
X461600Y232850D03*
X461600Y237850D03*
X461600Y242850D03*
X461600Y247850D03*
X461600Y252850D03*
X461600Y257850D03*
X461600Y262850D03*
X461600Y267850D03*
X461600Y272850D03*
X461600Y277850D03*
X461600Y282850D03*
X461600Y287850D03*
D14*
X480410Y287865D03*
X497410Y287865D03*
D19*
X539870Y107950D03*
X554870Y107950D03*
X494993Y348455D03*
X494993Y333455D03*
D15*
X559967Y92135D03*
X540967Y92135D03*
D11*
X477114Y329444D03*
X477114Y348444D03*
D20*
X316918Y134023D03*
X329618Y134023D03*
X342318Y134023D03*
X355018Y134023D03*
X367718Y134023D03*
X380418Y134023D03*
X393118Y134023D03*
X405818Y134023D03*
X405818Y190023D03*
X393118Y190023D03*
X380418Y190023D03*
X367718Y190023D03*
X355018Y190023D03*
X342318Y190023D03*
X329618Y190023D03*
X316918Y190023D03*
D11*
X388399Y90818D03*
X388399Y71818D03*
X406370Y96306D03*
X406370Y77306D03*
D14*
X281514Y149508D03*
X298514Y149508D03*
X389691Y115384D03*
X406691Y115384D03*
X372459Y94130D03*
X355459Y94130D03*
X315663Y72150D03*
X298663Y72150D03*
D15*
X359467Y73313D03*
X340467Y73313D03*
X339118Y98523D03*
X320118Y98523D03*
D21*
X837438Y381000D03*
X837438Y368300D03*
X837438Y355600D03*
X837438Y342900D03*
X889762Y342900D03*
X889762Y355600D03*
X889762Y368300D03*
X889762Y381000D03*
D16*
X938707Y335376D03*
X938707Y318376D03*
X939049Y388357D03*
X939049Y405357D03*
X818139Y436744D03*
X818139Y419744D03*
D22*
X932813Y371622D03*
X932813Y352622D03*
X953813Y362122D03*
D23*
X297868Y100223D03*
X288368Y122223D03*
X307368Y122223D03*
D11*
X892553Y394474D03*
X892553Y413474D03*
X916450Y388134D03*
X916450Y407134D03*
X916760Y336678D03*
X916760Y317678D03*
D15*
X565517Y502320D03*
X546517Y502320D03*
X468383Y506060D03*
X449383Y506060D03*
X376390Y504611D03*
X357390Y504611D03*
D14*
X358143Y523839D03*
X375143Y523839D03*
X450690Y524660D03*
X467690Y524660D03*
X546626Y522424D03*
X563626Y522424D03*
D24*
X777426Y568881D03*
X777426Y514881D03*
X764726Y514881D03*
X739326Y568881D03*
X739326Y514881D03*
X764726Y568881D03*
X752026Y514881D03*
X752026Y568881D03*
X727038Y350566D03*
X727038Y296566D03*
X714338Y296566D03*
X688938Y350566D03*
X688938Y296566D03*
X714338Y350566D03*
X701638Y296566D03*
X701638Y350566D03*
D25*
X417949Y332453D03*
X442949Y332453D03*
D26*
X254000Y488520D03*
X263500Y467520D03*
X244500Y467520D03*
D16*
X443563Y366344D03*
X443563Y349344D03*
X421466Y367427D03*
X421466Y350427D03*
D26*
X213360Y488520D03*
X222860Y467520D03*
X203860Y467520D03*
D22*
X225722Y295949D03*
X246722Y305449D03*
X246722Y286449D03*
D26*
X244231Y100995D03*
X234731Y121995D03*
X253731Y121995D03*
X204956Y99576D03*
X195456Y120576D03*
X214456Y120576D03*
D22*
X226442Y263540D03*
X247442Y273040D03*
X247442Y254040D03*
D15*
X262813Y452048D03*
X243813Y452048D03*
X255626Y502810D03*
X274626Y502810D03*
X222235Y452552D03*
X203235Y452552D03*
D11*
X261156Y306508D03*
X261156Y287508D03*
D15*
X214508Y502878D03*
X195508Y502878D03*
D11*
X211774Y298340D03*
X211774Y317340D03*
D15*
X235178Y135677D03*
X254178Y135677D03*
X242945Y86166D03*
X261945Y86166D03*
X195067Y134925D03*
X214067Y134925D03*
X203822Y84379D03*
X184822Y84379D03*
D11*
X261851Y271515D03*
X261851Y252515D03*
X209490Y262197D03*
X209490Y243197D03*
D26*
X315993Y523484D03*
X325493Y502484D03*
X306493Y502484D03*
D15*
X324460Y487680D03*
X305460Y487680D03*
X316089Y537349D03*
X297089Y537349D03*
D26*
X415234Y516291D03*
X424734Y495291D03*
X405734Y495291D03*
D15*
X423867Y480642D03*
X404867Y480642D03*
X415742Y530733D03*
X396742Y530733D03*
D26*
X515685Y514781D03*
X525185Y493781D03*
X506185Y493781D03*
D15*
X525041Y478907D03*
X506041Y478907D03*
X515622Y529963D03*
X496622Y529963D03*
D27*
X647042Y319009D03*
X647042Y342009D03*
X698056Y540269D03*
X698056Y563269D03*
D28*
X645712Y260947D03*
X555712Y260947D03*
D29*
X688027Y480697D03*
X598027Y480697D03*
M02*
