M48
;GenerationSoftware,Autodesk,EAGLE,9.5.1*%
;CreationDate,2019-10-18T07:34:31Z*%
FMAT,2
ICI,OFF
METRIC,TZ,000.000
T7C0.350
T6C0.381
T5C0.400
T4C0.406
T3C1.016
T2C3.000
T1C4.500
%
G90
M71
T1
X90955Y51173
X90955Y58373
T2
X17280Y21808
X17145Y39624
X101616Y61461
X101727Y1270
T3
X47090Y55730
X68886Y2297
X30360Y40839
X40259Y2177
X66346Y2297
X63806Y2297
X61266Y2297
X32639Y2177
X35179Y2177
X37719Y2177
X26586Y55847
X24046Y55847
X21506Y55847
X18966Y55847
X25711Y1994
X23171Y1994
X20631Y1994
X18091Y1994
X18206Y34118
X18206Y31578
X18206Y29038
X18206Y26498
X32993Y55730
X35533Y55730
X38073Y55730
X42010Y55730
X44550Y55730
X51088Y55850
X53628Y55850
X56168Y55850
X44039Y2148
X46579Y2148
X49119Y2148
X51659Y2148
X54199Y2148
X30360Y33219
X30360Y35759
X30360Y38299
T4
X30480Y46736
X39624Y46736
X49734Y46089
X34544Y48768
X55535Y36235
X95879Y37273
X96208Y35255
X54226Y4792
X61233Y4732
X18124Y4908
X18714Y24466
X18972Y53360
X80899Y30353
X32512Y42672
X94230Y36326
X96012Y33528
X20746Y34118
X43688Y48768
X37592Y47752
X26586Y53307
X19304Y51816
X21336Y22352
X22352Y33528
X29464Y55880
X16256Y8128
X25725Y4863
X53848Y47752
X47979Y47818
X85302Y51342
X60372Y57674
X67945Y24765
X69850Y38100
X84455Y41275
X72123Y3035
X72771Y46101
X74658Y58590
X46736Y31496
X49492Y31538
X46575Y4872
X68868Y4701
X45720Y21336
X35560Y23368
X31629Y30928
X30422Y18742
X20320Y43688
X24384Y43688
X29199Y28091
X22352Y16256
T5
X90097Y12588
X80645Y25654
T6
X79937Y31402
X78921Y31402
X77905Y31402
X76889Y31402
X75873Y32418
X76889Y32418
X78921Y32418
X75873Y33434
X76889Y33434
X77905Y33434
X78921Y33434
X79937Y33434
X79937Y34450
X78921Y34450
X77905Y34450
X76889Y34450
X75873Y34450
X75873Y35466
X76889Y35466
X75873Y36482
X76889Y36482
X77905Y36482
X77905Y35466
X78921Y35466
X78921Y36482
X78921Y37498
X79937Y37498
X79937Y36482
X79937Y35466
X84963Y54229
X84963Y53213
X83947Y53213
X82931Y53213
X80899Y59309
X64425Y60953
X64425Y59937
X64425Y58921
X64425Y57905
X81915Y59309
X82931Y59309
X83947Y59309
X77905Y32418
X59653Y36267
X80899Y53213
X81915Y53213
X80899Y54229
X81915Y54229
X82931Y54229
X83947Y54229
X84963Y55245
X83947Y55245
X82931Y55245
X81915Y55245
X80899Y55245
X80899Y56261
X81915Y56261
X82931Y56261
X83947Y56261
X84963Y56261
X84963Y57277
X29464Y25400
X30480Y43688
X49745Y42633
X39624Y42672
X83947Y57277
X84963Y59309
X59653Y37283
X59653Y38299
X59653Y39315
X84963Y58293
X83947Y58293
X82931Y57277
X82931Y58293
X81915Y57277
X81915Y58293
X80899Y57277
X80899Y58293
X77851Y53213
X77851Y55245
X77851Y54229
X76835Y55245
X76835Y54229
X79937Y32418
X75819Y55245
X74803Y55245
X73787Y55245
X73787Y54229
X73787Y53213
X74803Y54229
X74803Y53213
X75819Y53213
X76835Y53213
X75819Y54229
X68761Y33434
X69777Y33434
X70793Y33434
X71809Y33434
X72825Y33434
X68761Y32418
X69777Y32418
X70793Y32418
X71809Y32418
X72825Y32418
X72825Y31402
X71809Y31402
X70793Y31402
X69777Y31402
X68761Y31402
X75873Y31402
X75873Y37498
X76889Y37498
X77905Y37498
T7
X58420Y56515
X60325Y56515
X60325Y55245
X60325Y53975
X58420Y53975
X58420Y55245
X41656Y28448
X90805Y4064
X95885Y23114
X85725Y23949
X80645Y12954
X86995Y18034
X80645Y10414
X88265Y23114
X80645Y23114
X83185Y20574
X80645Y18034
X54615Y33050
X46990Y8890
X55880Y31750
X54610Y31750
X54610Y30480
X71882Y6423
X88900Y45085
X46990Y12700
X86995Y45085
X90805Y45085
X50800Y39370
X32385Y29210
X32385Y23495
X48895Y20320
X51435Y21590
X58420Y59055
X37465Y31750
X36195Y29577
X58420Y57785
X29787Y16837
X94820Y26306
X56642Y10795
X55939Y33020
M30